<svg width="22" height="28" viewBox="0 0 22 28" fill="none" xmlns="http://www.w3.org/2000/svg">
<path fill-rule="evenodd" clip-rule="evenodd" d="M2.29988 10.3334V21.7H19.6999V10.3334C19.6999 8.02598 18.7833 5.8131 17.1517 4.18154C15.5201 2.54997 13.3073 1.63337 10.9999 1.63337C8.69249 1.63337 6.47961 2.54997 4.84805 4.18154C3.21648 5.8131 2.29988 8.02598 2.29988 10.3334ZM20.9665 10.3334V22.1228L21.5999 22.9667H0.399902L1.03321 22.1228V10.3334C1.03321 7.69004 2.08327 5.15498 3.95238 3.28587C5.82149 1.41676 8.35655 0.366699 10.9999 0.366699C13.6432 0.366699 16.1783 1.41676 18.0474 3.28587C19.9165 5.15498 20.9665 7.69004 20.9665 10.3334ZM9.13783 26.8621C8.81272 26.537 8.5814 26.1356 8.46128 25.7H13.5385C13.4184 26.1356 13.187 26.537 12.8619 26.8621C12.3681 27.3559 11.6983 27.6334 10.9999 27.6334C10.3015 27.6334 9.63168 27.3559 9.13783 26.8621Z" fill="white"/>
</svg>
