<svg width="31" height="31" viewBox="0 0 31 31" fill="none" xmlns="http://www.w3.org/2000/svg">
<path fill-rule="evenodd" clip-rule="evenodd" d="M9.15069 9H21.6164C25.5656 9 28.7671 12.2015 28.7671 16.1507C28.7671 20.0999 25.5656 23.3014 21.6164 23.3014H9.1507C5.20148 23.3014 2 20.0999 2 16.1507C2 12.2015 5.20147 9 9.15069 9ZM1 16.1507C1 11.6492 4.64919 8 9.15069 8H21.6164C26.1179 8 29.7671 11.6492 29.7671 16.1507C29.7671 20.6522 26.1179 24.3014 21.6164 24.3014H9.1507C4.6492 24.3014 1 20.6522 1 16.1507ZM9.63014 16.6301C10.1597 16.6301 10.589 16.2008 10.589 15.6712C10.589 15.1416 10.1597 14.7123 9.63014 14.7123C9.10055 14.7123 8.67123 15.1416 8.67123 15.6712C8.67123 16.2008 9.10055 16.6301 9.63014 16.6301ZM16.3425 15.6712C16.3425 16.2008 15.9131 16.6301 15.3836 16.6301C14.854 16.6301 14.4247 16.2008 14.4247 15.6712C14.4247 15.1416 14.854 14.7123 15.3836 14.7123C15.9131 14.7123 16.3425 15.1416 16.3425 15.6712ZM21.137 16.6301C21.6666 16.6301 22.0959 16.2008 22.0959 15.6712C22.0959 15.1416 21.6666 14.7123 21.137 14.7123C20.6074 14.7123 20.1781 15.1416 20.1781 15.6712C20.1781 16.2008 20.6074 16.6301 21.137 16.6301Z" fill="white"/>
</svg>
