<svg width="32" height="32" viewBox="0 0 32 32" fill="none" xmlns="http://www.w3.org/2000/svg">
<path d="M26.0756 15.8022L15.9999 25.8779L5.92444 15.8022L5.57088 16.1558L5.92444 15.8022C4.02519 13.903 4.02519 10.8237 5.92444 8.92445C7.82369 7.0252 10.903 7.02519 12.8022 8.92445L15.6464 11.7687L16 12.1222L16.3535 11.7687L19.1978 8.92444C21.097 7.02519 24.1763 7.02519 26.0756 8.92444C27.9748 10.8237 27.9748 13.903 26.0756 15.8022Z" stroke="white"/>
<path d="M5.57089 8.57089C3.47637 10.6654 3.47637 14.0613 5.57088 16.1558L15.9999 26.585L16 11.4151L13.1558 8.57088C11.0613 6.47637 7.6654 6.47637 5.57089 8.57089Z" fill="#FDD019"/>
</svg>
