<svg width="32" height="32" viewBox="0 0 32 32" fill="none" xmlns="http://www.w3.org/2000/svg">
<path d="M13 23.5C13.2761 23.5 13.5 23.2761 13.5 23C13.5 22.7239 13.2761 22.5 13 22.5L13 23.5ZM13.4552 9.2069C13.5695 8.95551 13.4583 8.65909 13.2069 8.54482L9.11025 6.6827C8.85886 6.56843 8.56244 6.67959 8.44817 6.93099C8.3339 7.18238 8.44506 7.4788 8.69645 7.59307L12.3379 9.24828L10.6827 12.8897C10.5684 13.1411 10.6796 13.4376 10.931 13.5518C11.1824 13.6661 11.4788 13.5549 11.5931 13.3036L13.4552 9.2069ZM13 22.5C9.41015 22.5 6.5 19.5899 6.5 16H5.5C5.5 20.1421 8.85786 23.5 13 23.5L13 22.5ZM6.5 16C6.5 14.2239 7.17774 12.9833 8.32676 11.9912C9.50344 10.9753 11.1784 10.2171 13.1756 9.46816L12.8244 8.53184C10.8216 9.2829 8.99656 10.0917 7.67324 11.2343C6.32226 12.4007 5.5 13.9101 5.5 16H6.5Z" fill="#4F41F9"/>
<path d="M19 8.5C18.7239 8.5 18.5 8.72386 18.5 9C18.5 9.27614 18.7239 9.5 19 9.5L19 8.5ZM18.5713 22.7428C18.4292 22.9795 18.506 23.2867 18.7428 23.4287L22.6015 25.744C22.8383 25.8861 23.1454 25.8093 23.2875 25.5725C23.4295 25.3357 23.3528 25.0286 23.116 24.8865L19.686 22.8285L21.744 19.3985C21.8861 19.1617 21.8093 18.8546 21.5725 18.7125C21.3357 18.5705 21.0286 18.6472 20.8865 18.884L18.5713 22.7428ZM19 9.5C22.5899 9.5 25.5 12.4101 25.5 16H26.5C26.5 11.8579 23.1421 8.5 19 8.5L19 9.5ZM25.5 16C25.5 17.7855 24.8144 19.1537 23.6628 20.2056C22.4964 21.2709 20.834 22.0261 18.8787 22.5149L19.1213 23.4851C21.166 22.9739 23.0036 22.1621 24.3372 20.9439C25.6856 19.7123 26.5 18.0805 26.5 16H25.5Z" fill="#4F41F9"/>
</svg>
