<svg width="32" height="32" viewBox="0 0 32 32" fill="none" xmlns="http://www.w3.org/2000/svg">
<mask id="path-1-inside-1" fill="white">
<path fill-rule="evenodd" clip-rule="evenodd" d="M18.686 5.43491C18.8135 5.47434 18.9407 5.51712 19.0675 5.56328C19.2113 5.61561 19.3516 5.67042 19.4884 5.72764C19.7622 5.84218 20.077 5.71307 20.1915 5.43927C20.3061 5.16546 20.177 4.85064 19.9032 4.7361C19.7505 4.67222 19.5945 4.61128 19.4351 4.5533C19.2918 4.50112 19.1479 4.45274 19.0036 4.40811C18.7201 4.3204 18.4191 4.47916 18.3314 4.7627C18.2437 5.04624 18.4025 5.3472 18.686 5.43491ZM16.7119 5.08485C17.0084 5.09973 17.2607 4.8715 17.2756 4.57507C17.2905 4.27864 17.0622 4.02628 16.7658 4.0114C16.4607 3.99609 16.1566 3.99628 15.8545 4.0115C15.5581 4.02643 15.3299 4.27884 15.3448 4.57526C15.3597 4.87168 15.6121 5.09988 15.9086 5.08494C16.1749 5.07152 16.443 5.07135 16.7119 5.08485ZM22.0811 6.01965C21.8506 5.83274 21.5121 5.86811 21.3252 6.09866C21.1383 6.32921 21.1737 6.66763 21.4042 6.85455C21.6362 7.04262 21.8518 7.24246 22.0516 7.45365C22.2555 7.66929 22.5956 7.67879 22.8113 7.47485C23.0269 7.27092 23.0364 6.93079 22.8325 6.71515C22.5999 6.46919 22.3494 6.2372 22.0811 6.01965ZM13.9343 5.43483C14.2178 5.34712 14.3766 5.04616 14.2889 4.76262C14.2012 4.47908 13.9002 4.32032 13.6167 4.40803C13.4715 4.45294 13.3276 4.50141 13.185 4.5534C12.9062 4.65508 12.7625 4.96355 12.8642 5.24239C12.9659 5.52123 13.2743 5.66485 13.5532 5.56318C13.6791 5.51727 13.8062 5.47447 13.9343 5.43483ZM24.2521 8.83075C24.1285 8.56093 23.8095 8.44243 23.5397 8.56608C23.2699 8.68972 23.1514 9.00869 23.275 9.2785C23.3966 9.54392 23.5042 9.82074 23.5978 10.1088C23.6896 10.3911 23.9927 10.5455 24.275 10.4538C24.5573 10.3621 24.7117 10.0589 24.62 9.7766C24.5141 9.45079 24.3917 9.13529 24.2521 8.83075ZM23.722 16.2083C23.8978 16.4474 24.2342 16.4988 24.4733 16.3231L26.9731 14.4781C27.2123 14.3024 27.2637 13.966 27.0879 13.7268C26.9122 13.4877 26.5758 13.4363 26.3367 13.612L24.8663 14.6989L24.8627 12.0442C24.8381 11.7484 24.5784 11.5285 24.2826 11.5531C23.9868 11.5777 23.767 11.8374 23.7916 12.1332C23.8083 12.334 23.8007 13.2289 23.7952 13.8831C23.7926 14.1953 23.7904 14.4526 23.7916 14.5535L22.5972 13.1894C22.4214 12.9503 22.0851 12.8989 21.8459 13.0746C21.6067 13.2504 21.5553 13.5867 21.7311 13.8259L23.722 16.2083Z"/>
</mask>
<path fill-rule="evenodd" clip-rule="evenodd" d="M18.686 5.43491C18.8135 5.47434 18.9407 5.51712 19.0675 5.56328C19.2113 5.61561 19.3516 5.67042 19.4884 5.72764C19.7622 5.84218 20.077 5.71307 20.1915 5.43927C20.3061 5.16546 20.177 4.85064 19.9032 4.7361C19.7505 4.67222 19.5945 4.61128 19.4351 4.5533C19.2918 4.50112 19.1479 4.45274 19.0036 4.40811C18.7201 4.3204 18.4191 4.47916 18.3314 4.7627C18.2437 5.04624 18.4025 5.3472 18.686 5.43491ZM16.7119 5.08485C17.0084 5.09973 17.2607 4.8715 17.2756 4.57507C17.2905 4.27864 17.0622 4.02628 16.7658 4.0114C16.4607 3.99609 16.1566 3.99628 15.8545 4.0115C15.5581 4.02643 15.3299 4.27884 15.3448 4.57526C15.3597 4.87168 15.6121 5.09988 15.9086 5.08494C16.1749 5.07152 16.443 5.07135 16.7119 5.08485ZM22.0811 6.01965C21.8506 5.83274 21.5121 5.86811 21.3252 6.09866C21.1383 6.32921 21.1737 6.66763 21.4042 6.85455C21.6362 7.04262 21.8518 7.24246 22.0516 7.45365C22.2555 7.66929 22.5956 7.67879 22.8113 7.47485C23.0269 7.27092 23.0364 6.93079 22.8325 6.71515C22.5999 6.46919 22.3494 6.2372 22.0811 6.01965ZM13.9343 5.43483C14.2178 5.34712 14.3766 5.04616 14.2889 4.76262C14.2012 4.47908 13.9002 4.32032 13.6167 4.40803C13.4715 4.45294 13.3276 4.50141 13.185 4.5534C12.9062 4.65508 12.7625 4.96355 12.8642 5.24239C12.9659 5.52123 13.2743 5.66485 13.5532 5.56318C13.6791 5.51727 13.8062 5.47447 13.9343 5.43483ZM24.2521 8.83075C24.1285 8.56093 23.8095 8.44243 23.5397 8.56608C23.2699 8.68972 23.1514 9.00869 23.275 9.2785C23.3966 9.54392 23.5042 9.82074 23.5978 10.1088C23.6896 10.3911 23.9927 10.5455 24.275 10.4538C24.5573 10.3621 24.7117 10.0589 24.62 9.7766C24.5141 9.45079 24.3917 9.13529 24.2521 8.83075ZM23.722 16.2083C23.8978 16.4474 24.2342 16.4988 24.4733 16.3231L26.9731 14.4781C27.2123 14.3024 27.2637 13.966 27.0879 13.7268C26.9122 13.4877 26.5758 13.4363 26.3367 13.612L24.8663 14.6989L24.8627 12.0442C24.8381 11.7484 24.5784 11.5285 24.2826 11.5531C23.9868 11.5777 23.767 11.8374 23.7916 12.1332C23.8083 12.334 23.8007 13.2289 23.7952 13.8831C23.7926 14.1953 23.7904 14.4526 23.7916 14.5535L22.5972 13.1894C22.4214 12.9503 22.0851 12.8989 21.8459 13.0746C21.6067 13.2504 21.5553 13.5867 21.7311 13.8259L23.722 16.2083Z" fill="white"/>
<path d="M19.0675 5.56328L18.8965 6.03313L19.0675 5.56328ZM18.686 5.43491L18.8338 4.95724L18.8338 4.95724L18.686 5.43491ZM19.4884 5.72764L19.2954 6.1889L19.4884 5.72764ZM20.1915 5.43927L20.6528 5.63223L20.6528 5.63223L20.1915 5.43927ZM19.9032 4.7361L19.7102 5.19736L19.7102 5.19736L19.9032 4.7361ZM19.4351 4.5533L19.6062 4.08345V4.08345L19.4351 4.5533ZM19.0036 4.40811L18.8559 4.88578L18.8559 4.88578L19.0036 4.40811ZM18.3314 4.7627L17.8538 4.61494L17.8538 4.61494L18.3314 4.7627ZM17.2756 4.57507L17.775 4.60014L17.775 4.60014L17.2756 4.57507ZM16.7119 5.08485L16.6869 5.58423H16.6869L16.7119 5.08485ZM16.7658 4.0114L16.7909 3.51203L16.7658 4.0114ZM15.8545 4.0115L15.8293 3.51213H15.8293L15.8545 4.0115ZM15.3448 4.57526L15.8442 4.5501V4.5501L15.3448 4.57526ZM15.9086 5.08494L15.9337 5.58431H15.9337L15.9086 5.08494ZM21.3252 6.09866L21.7136 6.41354L21.7136 6.41354L21.3252 6.09866ZM22.0811 6.01965L21.7662 6.40804V6.40804L22.0811 6.01965ZM21.4042 6.85455L21.0894 7.24294L21.0894 7.24294L21.4042 6.85455ZM22.0516 7.45365L21.6883 7.79721L22.0516 7.45365ZM22.8113 7.47485L22.4677 7.11157V7.11158L22.8113 7.47485ZM22.8325 6.71515L22.4692 7.0587V7.0587L22.8325 6.71515ZM14.2889 4.76262L14.7666 4.61486V4.61486L14.2889 4.76262ZM13.9343 5.43483L13.7865 4.95716L13.7865 4.95716L13.9343 5.43483ZM13.6167 4.40803L13.4689 3.93037L13.4689 3.93037L13.6167 4.40803ZM13.185 4.5534L13.3563 5.02315H13.3563L13.185 4.5534ZM12.8642 5.24239L12.3945 5.41367L12.3945 5.41367L12.8642 5.24239ZM13.5532 5.56318L13.7245 6.03292L13.7245 6.03292L13.5532 5.56318ZM23.5397 8.56608L23.748 9.02062L23.748 9.02062L23.5397 8.56608ZM24.2521 8.83075L24.7066 8.62245V8.62245L24.2521 8.83075ZM23.275 9.2785L23.7295 9.07021V9.0702L23.275 9.2785ZM23.5978 10.1088L23.1223 10.2633V10.2633L23.5978 10.1088ZM24.275 10.4538L24.1205 9.97827L24.275 10.4538ZM24.62 9.7766L24.1445 9.93113L24.1445 9.93114L24.62 9.7766ZM24.4733 16.3231L24.7694 16.726L24.7702 16.7254L24.4733 16.3231ZM23.722 16.2083L24.125 15.9122C24.1188 15.9038 24.1124 15.8956 24.1057 15.8876L23.722 16.2083ZM26.9731 14.4781L26.677 14.0752L26.6762 14.0758L26.9731 14.4781ZM27.0879 13.7268L27.4908 13.4308L27.4908 13.4308L27.0879 13.7268ZM26.3367 13.612L26.0406 13.2091L26.0394 13.21L26.3367 13.612ZM24.8663 14.6989L24.3663 14.6996C24.3666 14.8883 24.473 15.0607 24.6415 15.1455C24.81 15.2304 25.0119 15.2131 25.1635 15.101L24.8663 14.6989ZM24.8627 12.0442L25.3627 12.0435C25.3627 12.0299 25.3621 12.0163 25.361 12.0027L24.8627 12.0442ZM23.7916 12.1332L23.2933 12.1746V12.1746L23.7916 12.1332ZM23.7952 13.8831L24.2952 13.8873L23.7952 13.8831ZM23.7916 14.5535L23.4154 14.8829C23.5533 15.0404 23.7747 15.0953 23.9702 15.0205C24.1657 14.9457 24.2939 14.7571 24.2916 14.5478L23.7916 14.5535ZM22.5972 13.1894L22.1943 13.4855C22.2027 13.497 22.2116 13.5081 22.221 13.5188L22.5972 13.1894ZM21.8459 13.0746L22.142 13.4775L22.142 13.4775L21.8459 13.0746ZM21.7311 13.8259L21.3282 14.122C21.3343 14.1304 21.3407 14.1385 21.3474 14.1465L21.7311 13.8259ZM23.9573 16.3972L24.3603 16.1012C24.3541 16.0928 24.3477 16.0846 24.341 16.0766L23.9573 16.3972ZM24.7086 16.5121L25.0047 16.915L25.0055 16.9144L24.7086 16.5121ZM24.3316 16.0654C24.1546 15.8535 23.8392 15.8253 23.6273 16.0023C23.4154 16.1794 23.3872 16.4947 23.5643 16.7066L24.3316 16.0654ZM22.8325 13.3784L22.4296 13.6745C22.438 13.686 22.4469 13.6971 22.4563 13.7078L22.8325 13.3784ZM22.8002 12.7397C22.5454 12.6331 22.2525 12.7533 22.146 13.008C22.0394 13.2628 22.1596 13.5557 22.4143 13.6622L22.8002 12.7397ZM27.3232 13.9158L26.9203 14.2119V14.2119L27.3232 13.9158ZM27.2859 13.275C27.0306 13.1698 26.7383 13.2915 26.6331 13.5468C26.5279 13.8021 26.6496 14.0944 26.9049 14.1996L27.2859 13.275ZM27.2084 14.6671L26.9123 14.2642L26.9115 14.2648L27.2084 14.6671ZM25.098 12.2331L25.598 12.2324C25.598 12.2188 25.5974 12.2052 25.5963 12.1917L25.098 12.2331ZM24.9592 11.319C24.7041 11.2133 24.4116 11.3344 24.3059 11.5895C24.2002 11.8446 24.3213 12.1371 24.5764 12.2428L24.9592 11.319ZM23.4151 14.8028C23.597 15.0105 23.9129 15.0315 24.1207 14.8496C24.3284 14.6676 24.3494 14.3518 24.1674 14.144L23.4151 14.8028ZM24.6011 14.5261C24.6015 14.8022 24.8257 15.0257 25.1018 15.0254C25.3779 15.025 25.6015 14.8008 25.6011 14.5247L24.6011 14.5261ZM23.5656 16.7082C23.7427 16.9201 24.058 16.9484 24.2699 16.7713C24.4818 16.5942 24.51 16.2789 24.333 16.067L23.5656 16.7082ZM24.3397 16.075C24.1626 15.8631 23.8473 15.8349 23.6354 16.012C23.4235 16.189 23.3953 16.5044 23.5723 16.7163L24.3397 16.075ZM23.7117 16.8638C23.9205 17.0445 24.2362 17.0218 24.417 16.813C24.5977 16.6042 24.575 16.2884 24.3662 16.1077L23.7117 16.8638ZM24.4049 16.1136C24.1517 16.2237 24.0357 16.5183 24.1458 16.7715C24.2559 17.0248 24.5504 17.1408 24.8037 17.0307L24.4049 16.1136ZM25.3626 16.6508C25.5848 16.4868 25.632 16.1738 25.468 15.9516C25.304 15.7294 24.991 15.6822 24.7688 15.8462L25.3626 16.6508ZM26.5544 14.5284C26.3322 14.6923 26.285 15.0054 26.449 15.2276C26.613 15.4498 26.926 15.4969 27.1482 15.333L26.5544 14.5284ZM27.6749 14.9127C27.8557 14.7039 27.8329 14.3882 27.6241 14.2074C27.4154 14.0267 27.0996 14.0494 26.9189 14.2582L27.6749 14.9127ZM26.9248 14.2195C27.0349 14.4728 27.3295 14.5888 27.5827 14.4787C27.8359 14.3685 27.9519 14.074 27.8418 13.8207L26.9248 14.2195ZM27.6762 13.5569C27.496 13.3476 27.1803 13.3239 26.971 13.5041C26.7617 13.6842 26.7381 13.9999 26.9182 14.2092L27.6762 13.5569ZM26.9075 14.2008C27.1538 14.3256 27.4547 14.227 27.5795 13.9807C27.7043 13.7343 27.6058 13.4335 27.3594 13.3087L26.9075 14.2008ZM22.4169 13.6634C22.6627 13.7893 22.964 13.6922 23.0899 13.4464C23.2158 13.2006 23.1186 12.8993 22.8728 12.7734L22.4169 13.6634ZM23.1859 13.0201C23.0059 12.8107 22.6903 12.7868 22.4808 12.9667C22.2714 13.1467 22.2475 13.4624 22.4274 13.6718L23.1859 13.0201ZM22.5933 13.8642C22.7752 14.072 23.0911 14.0929 23.2988 13.911C23.5066 13.7291 23.5275 13.4132 23.3456 13.2054L22.5933 13.8642ZM24.0305 13.9876C23.8486 13.7798 23.5327 13.7589 23.3249 13.9408C23.1172 14.1227 23.0962 14.4386 23.2781 14.6464L24.0305 13.9876ZM24.5816 12.2455C24.8171 12.3897 25.1249 12.3156 25.2691 12.0801C25.4133 11.8446 25.3393 11.5368 25.1038 11.3926L24.5816 12.2455ZM25.5704 12.0321C25.5053 11.7638 25.2349 11.5991 24.9666 11.6643C24.6982 11.7294 24.5335 11.9998 24.5987 12.2681L25.5704 12.0321ZM24.5984 12.5613C24.5988 12.8374 24.823 13.061 25.0991 13.0606C25.3753 13.0602 25.5988 12.836 25.5984 12.5599L24.5984 12.5613ZM25.6007 14.1972C25.6003 13.9211 25.3761 13.6975 25.1 13.6979C24.8239 13.6983 24.6003 13.9224 24.6007 14.1986L25.6007 14.1972ZM19.1812 5.07277C18.921 4.98014 18.635 5.11593 18.5424 5.37607C18.4498 5.63622 18.5856 5.9222 18.8457 6.01483L19.1812 5.07277ZM18.5898 5.92872C18.853 6.01218 19.1341 5.86645 19.2175 5.60322C19.301 5.33999 19.1553 5.05894 18.892 4.97548L18.5898 5.92872ZM18.8257 4.95376C18.5865 4.8157 18.2807 4.89766 18.1427 5.13681C18.0046 5.37597 18.0865 5.68176 18.3257 5.81982L18.8257 4.95376ZM17.8103 4.84276C17.7892 5.11809 17.9953 5.35839 18.2707 5.37948C18.546 5.40057 18.7863 5.19447 18.8074 4.91913L17.8103 4.84276ZM18.8126 4.90233C18.9506 4.66318 18.8687 4.35739 18.6295 4.21933C18.3904 4.08127 18.0846 4.16323 17.9465 4.40238L18.8126 4.90233ZM18.9236 3.88699C18.6483 3.86589 18.408 4.072 18.3869 4.34734C18.3658 4.62267 18.5719 4.86297 18.8472 4.88406L18.9236 3.88699ZM18.9146 4.90417C19.1778 4.98763 19.4589 4.8419 19.5423 4.57867C19.6258 4.31544 19.4801 4.03439 19.2168 3.95093L18.9146 4.90417ZM19.5417 4.06024C19.2815 3.9676 18.9956 4.1034 18.9029 4.36354C18.8103 4.62368 18.9461 4.90966 19.2062 5.00229L19.5417 4.06024ZM19.3284 5.04679C19.5873 5.14293 19.8751 5.01102 19.9712 4.75215C20.0674 4.49328 19.9355 4.20549 19.6766 4.10935L19.3284 5.04679ZM20.0266 4.24604C19.7711 4.14123 19.4791 4.26338 19.3742 4.51886C19.2694 4.77435 19.3916 5.06641 19.6471 5.17122L20.0266 4.24604ZM19.7179 5.20161C19.9427 5.36201 20.255 5.30981 20.4154 5.08502C20.5758 4.86024 20.5236 4.54799 20.2988 4.38759L19.7179 5.20161ZM20.7179 5.40965C20.7654 5.13761 20.5833 4.87862 20.3113 4.83118C20.0392 4.78373 19.7802 4.9658 19.7328 5.23784L20.7179 5.40965ZM19.726 5.25406C19.5656 5.47884 19.6178 5.79109 19.8426 5.95149C20.0674 6.11188 20.3796 6.05968 20.54 5.8349L19.726 5.25406ZM19.518 6.25404C19.79 6.30149 20.049 6.11942 20.0964 5.84738C20.1439 5.57535 19.9618 5.31636 19.6898 5.26891L19.518 6.25404ZM19.6185 5.24034C19.363 5.13554 19.0709 5.2577 18.9661 5.51318C18.8613 5.76867 18.9835 6.06073 19.239 6.16553L19.6185 5.24034ZM18.9541 6.05428C19.2129 6.15041 19.5007 6.01849 19.5968 5.75963C19.693 5.50076 19.5611 5.21297 19.3022 5.11684L18.9541 6.05428ZM16.7749 4.55874C16.7002 4.8246 16.8552 5.10064 17.1211 5.17528C17.387 5.24992 17.663 5.0949 17.7376 4.82903L16.7749 4.55874ZM16.9183 5.57001C17.1903 5.52236 17.3722 5.26324 17.3246 4.99124C17.2769 4.71924 17.0178 4.53736 16.7458 4.585L16.9183 5.57001ZM16.6151 4.58024C16.3391 4.57036 16.1074 4.78607 16.0975 5.06203C16.0877 5.338 16.3034 5.56972 16.5793 5.5796L16.6151 4.58024ZM16.0413 5.57966C16.3172 5.56973 16.5329 5.33796 16.5229 5.06199C16.513 4.78603 16.2812 4.57037 16.0053 4.58031L16.0413 5.57966ZM15.8746 4.58509C15.6026 4.5375 15.3435 4.71943 15.2959 4.99144C15.2483 5.26345 15.4302 5.52254 15.7022 5.57013L15.8746 4.58509ZM14.8828 4.82931C14.9575 5.09516 15.2336 5.25013 15.4994 5.17544C15.7653 5.10075 15.9202 4.82469 15.8455 4.55884L14.8828 4.82931ZM15.8446 4.54127C15.8922 4.26926 15.7103 4.01017 15.4383 3.96258C15.1663 3.91499 14.9072 4.09692 14.8596 4.36893L15.8446 4.54127ZM15.6004 3.5495C15.3346 3.62419 15.1796 3.90025 15.2543 4.1661C15.329 4.43195 15.6051 4.58692 15.8709 4.51223L15.6004 3.5495ZM16.0026 4.50555C16.2786 4.49562 16.4942 4.26385 16.4843 3.98789C16.4743 3.71192 16.2426 3.49627 15.9666 3.5062L16.0026 4.50555ZM16.6536 3.50613C16.3776 3.49625 16.1459 3.71195 16.136 3.98792C16.1261 4.26388 16.3418 4.49561 16.6178 4.50549L16.6536 3.50613ZM16.7495 4.51214C17.0153 4.58678 17.2914 4.43176 17.366 4.1659C17.4407 3.90003 17.2856 3.624 17.0198 3.54936L16.7495 4.51214ZM17.7607 4.36865C17.7131 4.09665 17.454 3.91477 17.182 3.96241C16.91 4.01005 16.7281 4.26917 16.7757 4.54118L17.7607 4.36865ZM20.8117 5.97907C20.6897 6.22679 20.7916 6.52653 21.0393 6.64855C21.287 6.77057 21.5868 6.66867 21.7088 6.42095L20.8117 5.97907ZM21.7129 6.4599C21.5423 6.24277 21.2279 6.20506 21.0108 6.37567C20.7937 6.54629 20.756 6.86061 20.9266 7.07774L21.7129 6.4599ZM21.1795 7.31738C21.3907 7.49521 21.7062 7.4681 21.884 7.25683C22.0618 7.04557 22.0347 6.73015 21.8234 6.55232L21.1795 7.31738ZM22.3207 7.01241C22.1271 6.81546 21.8105 6.81271 21.6136 7.00627C21.4166 7.19983 21.4139 7.5164 21.6074 7.71335L22.3207 7.01241ZM21.8654 7.94693C22.0949 8.10051 22.4054 8.03897 22.559 7.80947C22.7126 7.57997 22.6511 7.26943 22.4216 7.11585L21.8654 7.94693ZM22.4607 7.11695C22.223 7.25749 22.1442 7.56411 22.2848 7.80182C22.4253 8.03952 22.7319 8.11829 22.9696 7.97775L22.4607 7.11695ZM23.3045 7.66102C23.4581 7.43152 23.3966 7.12098 23.1671 6.9674C22.9376 6.81382 22.627 6.87537 22.4735 7.10486L23.3045 7.66102ZM22.4746 7.06572C22.6151 7.30343 22.9217 7.3822 23.1594 7.24166C23.3971 7.10112 23.4759 6.79449 23.3354 6.55678L22.4746 7.06572ZM23.0875 6.25932C22.894 6.06236 22.5774 6.0596 22.3804 6.25314C22.1835 6.44669 22.1807 6.76326 22.3743 6.96022L23.0875 6.25932ZM21.8719 6.49538C22.0832 6.67322 22.3986 6.64613 22.5765 6.43488C22.7543 6.22362 22.7272 5.9082 22.516 5.73036L21.8719 6.49538ZM22.2007 5.50615C21.953 5.38413 21.6532 5.48603 21.5312 5.73375C21.4092 5.98146 21.5111 6.2812 21.7588 6.40322L22.2007 5.50615ZM21.7199 6.40729C21.937 6.23668 21.9747 5.92235 21.8041 5.70522C21.6335 5.48809 21.3191 5.45038 21.102 5.621L21.7199 6.40729ZM14.6738 4.4023C14.5357 4.16314 14.2299 4.08119 13.9908 4.21925C13.7516 4.35731 13.6697 4.6631 13.8077 4.90225L14.6738 4.4023ZM13.7731 4.88399C14.0484 4.86289 14.2546 4.62259 14.2335 4.34726C14.2124 4.07192 13.9721 3.86582 13.6967 3.88691L13.7731 4.88399ZM13.4034 3.95088C13.1402 4.03435 12.9945 4.31541 13.078 4.57863C13.1614 4.84186 13.4425 4.98757 13.7057 4.90409L13.4034 3.95088ZM13.4142 5.00228C13.6743 4.90952 13.8099 4.62348 13.7172 4.36338C13.6244 4.10328 13.3384 3.96762 13.0783 4.06038L13.4142 5.00228ZM12.806 4.18686C12.574 4.33661 12.5073 4.6461 12.6571 4.8781C12.8068 5.11011 13.1163 5.17679 13.3483 5.02703L12.806 4.18686ZM13.3318 5.06253C13.2971 4.78858 13.0468 4.59465 12.7729 4.62938C12.4989 4.66411 12.305 4.91434 12.3397 5.18829L13.3318 5.06253ZM12.4977 5.62136C12.6474 5.85337 12.9569 5.92005 13.1889 5.77029C13.4209 5.62054 13.4876 5.31106 13.3378 5.07905L12.4977 5.62136ZM13.3733 5.09557C13.0994 5.1303 12.9054 5.38054 12.9402 5.65449C12.9749 5.92844 13.2251 6.12236 13.4991 6.08763L13.3733 5.09557ZM13.7752 6.01464C14.0353 5.92188 14.1709 5.63584 14.0782 5.37574C13.9854 5.11564 13.6994 4.97998 13.4393 5.07274L13.7752 6.01464ZM13.7283 4.9754C13.4651 5.05888 13.3194 5.33993 13.4029 5.60315C13.4863 5.86638 13.7674 6.01209 14.0306 5.92861L13.7283 4.9754ZM14.2946 5.81973C14.5338 5.68168 14.6157 5.37588 14.4777 5.13673C14.3396 4.89758 14.0338 4.81562 13.7947 4.95368L14.2946 5.81973ZM13.8129 4.91905C13.834 5.19439 14.0743 5.40049 14.3497 5.3794C14.625 5.35831 14.8311 5.11801 14.81 4.84267L13.8129 4.91905ZM23.1326 8.23101C22.9133 8.39884 22.8716 8.71266 23.0394 8.93195C23.2072 9.15124 23.5211 9.19296 23.7404 9.02513L23.1326 8.23101ZM23.7267 9.06183C23.6702 8.79153 23.4053 8.61824 23.135 8.67476C22.8647 8.73129 22.6914 8.99623 22.7479 9.26652L23.7267 9.06183ZM22.869 9.59511C22.9796 9.8481 23.2744 9.96347 23.5274 9.8528C23.7804 9.74212 23.8958 9.44731 23.7851 9.19432L22.869 9.59511ZM24.0306 9.82604C23.9411 9.56479 23.6568 9.42551 23.3956 9.51496C23.1343 9.60441 22.995 9.88871 23.0845 10.15L24.0306 9.82604ZM23.2181 10.4745C23.3595 10.7117 23.6665 10.7893 23.9036 10.6479C24.1408 10.5064 24.2184 10.1995 24.0769 9.96233L23.2181 10.4745ZM24.1118 9.9801C23.8368 10.0051 23.6342 10.2483 23.6592 10.5233C23.6842 10.7983 23.9274 11.001 24.2024 10.976L24.1118 9.9801ZM24.6408 10.8335C24.8779 10.6921 24.9555 10.3852 24.8141 10.148C24.6726 9.91082 24.3657 9.83322 24.1286 9.97467L24.6408 10.8335ZM24.1463 9.93979C24.1713 10.2148 24.4145 10.4175 24.6895 10.3925C24.9646 10.3675 25.1672 10.1242 25.1422 9.84923L24.1463 9.93979ZM25.0471 9.47698C24.9576 9.21574 24.6733 9.07649 24.4121 9.16597C24.1508 9.25544 24.0116 9.53975 24.1011 9.801L25.0471 9.47698ZM23.8533 9.16358C23.964 9.41656 24.2589 9.5319 24.5118 9.4212C24.7648 9.3105 24.8802 9.01567 24.7695 8.76269L23.8533 9.16358ZM24.5872 8.42367C24.4193 8.20438 24.1055 8.16266 23.8862 8.33049C23.6669 8.49832 23.6252 8.81215 23.793 9.03143L24.5872 8.42367ZM23.7563 9.0178C24.0266 8.96128 24.1999 8.69634 24.1434 8.42604C24.0869 8.15574 23.8219 7.98245 23.5517 8.03897L23.7563 9.0178ZM24.1696 15.9246C23.9164 16.0348 23.8004 16.3293 23.9105 16.5826C24.0206 16.8358 24.3152 16.9518 24.5684 16.8417L24.1696 15.9246ZM23.4764 16.6748C23.6852 16.8555 24.001 16.8328 24.1817 16.624C24.3624 16.4152 24.3397 16.0995 24.1309 15.9187L23.4764 16.6748ZM23.8213 15.5473C23.6442 15.3354 23.3289 15.3072 23.117 15.4843C22.9051 15.6613 22.8769 15.9767 23.054 16.1886L23.8213 15.5473ZM21.6318 14.4869C21.8089 14.6988 22.1242 14.727 22.3361 14.5499C22.548 14.3728 22.5762 14.0575 22.3992 13.8456L21.6318 14.4869ZM22.1295 13.5222C22.0194 13.2689 21.7248 13.1529 21.4716 13.263C21.2184 13.3732 21.1024 13.6677 21.2125 13.921L22.1295 13.5222ZM21.3794 12.829C21.1986 13.0378 21.2214 13.3535 21.4302 13.5343C21.6389 13.715 21.9547 13.6923 22.1354 13.4835L21.3794 12.829ZM22.1496 13.4731C22.4028 13.3629 22.5189 13.0684 22.4087 12.8152C22.2986 12.5619 22.0041 12.4459 21.7508 12.556L22.1496 13.4731ZM22.8428 12.7229C22.634 12.5422 22.3183 12.5649 22.1375 12.7737C21.9568 12.9825 21.9795 13.2982 22.1883 13.479L22.8428 12.7229ZM22.3916 13.7137C22.5736 13.9214 22.8894 13.9424 23.0972 13.7605C23.3049 13.5786 23.3259 13.2627 23.144 13.0549L22.3916 13.7137ZM23.9971 14.0292C23.8152 13.8215 23.4993 13.8005 23.2916 13.9825C23.0838 14.1644 23.0629 14.4803 23.2448 14.688L23.9971 14.0292ZM24.2913 14.4586C24.2917 14.1824 24.0682 13.9582 23.792 13.9578C23.5159 13.9574 23.2917 14.1809 23.2913 14.4571L24.2913 14.4586ZM23.2945 13.9748C23.2921 14.2509 23.5141 14.4766 23.7903 14.4789C24.0664 14.4812 24.2921 14.2592 24.2944 13.9831L23.2945 13.9748ZM24.2973 13.6372C24.2995 13.361 24.0775 13.1354 23.8013 13.1332C23.5252 13.1309 23.2995 13.353 23.2973 13.6291L24.2973 13.6372ZM23.2998 12.3896C23.3036 12.6658 23.5306 12.8865 23.8067 12.8827C24.0828 12.8789 24.3035 12.6519 24.2997 12.3758L23.2998 12.3896ZM24.2901 12.0829C24.3288 11.8095 24.1385 11.5565 23.8651 11.5178C23.5917 11.4791 23.3386 11.6694 23.2999 11.9428L24.2901 12.0829ZM24.0137 11.0996C23.7504 11.183 23.6045 11.4639 23.6878 11.7272C23.7711 11.9905 24.0521 12.1364 24.3154 12.0531L24.0137 11.0996ZM24.3329 12.0516C24.6063 12.0903 24.8593 11.9 24.898 11.6266C24.9367 11.3532 24.7465 11.1002 24.473 11.0615L24.3329 12.0516ZM25.3162 11.7752C25.2329 11.5119 24.9519 11.366 24.6886 11.4493C24.4253 11.5326 24.2795 11.8136 24.3628 12.0769L25.3162 11.7752ZM24.3632 12.4241C24.3636 12.7002 24.5878 12.9238 24.8639 12.9234C25.14 12.923 25.3636 12.6989 25.3632 12.4227L24.3632 12.4241ZM25.3658 14.319C25.3654 14.0429 25.1413 13.8193 24.8651 13.8197C24.589 13.8201 24.3654 14.0442 24.3658 14.3204L25.3658 14.319ZM25.3736 14.9457C25.5957 14.7816 25.6426 14.4685 25.4784 14.2464C25.3143 14.0244 25.0012 13.9774 24.7792 14.1416L25.3736 14.9457ZM25.8294 13.3652C25.6073 13.5294 25.5604 13.8425 25.7245 14.0645C25.8887 14.2866 26.2018 14.3335 26.4238 14.1694L25.8294 13.3652ZM26.6404 14.0105C26.8936 13.9004 27.0096 13.6058 26.8995 13.3526C26.7894 13.0993 26.4948 12.9833 26.2416 13.0934L26.6404 14.0105ZM27.3336 13.2603C27.1248 13.0796 26.809 13.1023 26.6283 13.3111C26.4476 13.5199 26.4703 13.8356 26.6791 14.0164L27.3336 13.2603ZM26.6895 14.0306C26.7996 14.2838 27.0942 14.3998 27.3474 14.2897C27.6006 14.1796 27.7167 13.885 27.6065 13.6318L26.6895 14.0306ZM27.4396 14.7238C27.6204 14.515 27.5976 14.1992 27.3888 14.0185C27.1801 13.8377 26.8643 13.8605 26.6836 14.0693L27.4396 14.7238ZM26.3191 14.3394C26.0969 14.5034 26.0497 14.8164 26.2137 15.0386C26.3777 15.2608 26.6907 15.308 26.9129 15.144L26.3191 14.3394ZM25.1274 16.4618C25.3495 16.2978 25.3967 15.9848 25.2327 15.7626C25.0687 15.5404 24.7557 15.4933 24.5335 15.6572L25.1274 16.4618ZM23.5643 16.7066L23.5656 16.7082L24.333 16.067L24.3316 16.0654L23.5643 16.7066ZM23.5723 16.7163L23.5737 16.7179L24.341 16.0766L24.3397 16.075L23.5723 16.7163ZM23.5544 16.6933C23.601 16.7567 23.6539 16.8137 23.7117 16.8638L24.3662 16.1077C24.3644 16.1061 24.3624 16.104 24.3603 16.1012L23.5544 16.6933ZM24.8037 17.0307C24.8738 17.0002 24.9413 16.9616 25.0047 16.915L24.4125 16.1092C24.4097 16.1113 24.4071 16.1127 24.4049 16.1136L24.8037 17.0307ZM25.0055 16.9144L25.3626 16.6508L24.7688 15.8462L24.4117 16.1098L25.0055 16.9144ZM27.1482 15.333L27.5053 15.0694L26.9115 14.2648L26.5544 14.5284L27.1482 15.333ZM27.5045 15.07C27.5679 15.0234 27.6249 14.9706 27.6749 14.9127L26.9189 14.2582C26.9173 14.26 26.9152 14.2621 26.9123 14.2642L27.5045 15.07ZM27.8418 13.8207C27.8113 13.7506 27.7727 13.6831 27.7261 13.6197L26.9203 14.2119C26.9224 14.2148 26.9238 14.2173 26.9248 14.2195L27.8418 13.8207ZM27.7261 13.6197C27.7102 13.5981 27.6935 13.5771 27.6762 13.5569L26.9182 14.2092C26.9189 14.21 26.9196 14.2109 26.9203 14.2119L27.7261 13.6197ZM27.3594 13.3087C27.3353 13.2965 27.3108 13.2852 27.2859 13.275L26.9049 14.1996C26.9058 14.1999 26.9067 14.2003 26.9075 14.2008L27.3594 13.3087ZM22.4143 13.6622C22.4152 13.6626 22.4161 13.663 22.4169 13.6634L22.8728 12.7734C22.849 12.7612 22.8247 12.75 22.8002 12.7397L22.4143 13.6622ZM22.4274 13.6718C22.4281 13.6726 22.4288 13.6735 22.4296 13.6745L23.2354 13.0823C23.2196 13.0609 23.2031 13.0401 23.1859 13.0201L22.4274 13.6718ZM22.4563 13.7078L22.5933 13.8642L23.3456 13.2054L23.2086 13.049L22.4563 13.7078ZM23.2781 14.6464L23.4151 14.8028L24.1674 14.144L24.0305 13.9876L23.2781 14.6464ZM24.5764 12.2428C24.5781 12.2435 24.5799 12.2444 24.5816 12.2455L25.1038 11.3926C25.0578 11.3645 25.0095 11.3398 24.9592 11.319L24.5764 12.2428ZM24.5987 12.2681C24.5991 12.2699 24.5995 12.272 24.5997 12.2745L25.5963 12.1917C25.5918 12.1374 25.5831 12.0841 25.5704 12.0321L24.5987 12.2681ZM24.598 12.2338L24.5984 12.5613L25.5984 12.5599L25.598 12.2324L24.598 12.2338ZM24.6007 14.1986L24.6011 14.5261L25.6011 14.5247L25.6007 14.1972L24.6007 14.1986ZM19.2386 5.09344C19.2194 5.08648 19.2003 5.07959 19.1812 5.07277L18.8457 6.01483C18.8627 6.02087 18.8796 6.02697 18.8965 6.03313L19.2386 5.09344ZM18.892 4.97548C18.8726 4.96933 18.8532 4.96325 18.8338 4.95724L18.5383 5.91258C18.5554 5.91789 18.5726 5.92327 18.5898 5.92872L18.892 4.97548ZM18.8338 4.95724C18.8304 4.95619 18.8277 4.95497 18.8257 4.95376L18.3257 5.81982C18.392 5.85806 18.4631 5.88933 18.5383 5.91258L18.8338 4.95724ZM18.8074 4.91913C18.8076 4.91673 18.808 4.91387 18.8091 4.91046L17.8538 4.61494C17.8305 4.6901 17.8162 4.76648 17.8103 4.84276L18.8074 4.91913ZM18.8091 4.91046C18.8102 4.90705 18.8114 4.90442 18.8126 4.90233L17.9465 4.40238C17.9083 4.46863 17.877 4.53978 17.8538 4.61494L18.8091 4.91046ZM18.8472 4.88406C18.8496 4.88425 18.8525 4.88472 18.8559 4.88578L19.1514 3.93044C19.0762 3.90719 18.9999 3.89283 18.9236 3.88699L18.8472 4.88406ZM18.8559 4.88578C18.8755 4.89184 18.895 4.89797 18.9146 4.90417L19.2168 3.95093C19.195 3.94402 19.1732 3.93719 19.1514 3.93044L18.8559 4.88578ZM19.2062 5.00229C19.2255 5.00917 19.2448 5.01612 19.2641 5.02314L19.6062 4.08345C19.5847 4.07563 19.5632 4.06789 19.5417 4.06024L19.2062 5.00229ZM19.2641 5.02314C19.2856 5.03097 19.3071 5.03885 19.3284 5.04679L19.6766 4.10935C19.6532 4.10066 19.6297 4.09202 19.6062 4.08345L19.2641 5.02314ZM19.6471 5.17122C19.6682 5.17988 19.6892 5.18859 19.7102 5.19736L20.0961 4.27484C20.073 4.26517 20.0498 4.25557 20.0266 4.24604L19.6471 5.17122ZM19.7102 5.19736C19.7135 5.19874 19.716 5.20021 19.7179 5.20161L20.2988 4.38759C20.2365 4.34316 20.1687 4.3052 20.0961 4.27484L19.7102 5.19736ZM19.7328 5.23784C19.7324 5.24021 19.7316 5.24301 19.7303 5.2463L20.6528 5.63223C20.6832 5.55965 20.7048 5.48501 20.7179 5.40965L19.7328 5.23784ZM19.7303 5.2463C19.7289 5.2496 19.7274 5.25209 19.726 5.25406L20.54 5.8349C20.5845 5.77263 20.6224 5.70481 20.6528 5.63223L19.7303 5.2463ZM19.6898 5.26891C19.6874 5.2685 19.6846 5.26775 19.6813 5.26637L19.2954 6.1889C19.368 6.21926 19.4426 6.2409 19.518 6.25404L19.6898 5.26891ZM19.6813 5.26637C19.6604 5.25764 19.6395 5.24896 19.6185 5.24034L19.239 6.16553C19.2579 6.17328 19.2767 6.18107 19.2954 6.1889L19.6813 5.26637ZM19.3022 5.11684C19.2811 5.10898 19.2598 5.10118 19.2386 5.09344L18.8965 6.03313C18.9158 6.04013 18.935 6.04718 18.9541 6.05428L19.3022 5.11684ZM16.7762 4.55C16.776 4.55357 16.7755 4.55641 16.7749 4.55874L17.7376 4.82903C17.7583 4.75539 17.771 4.67871 17.775 4.60014L16.7762 4.55ZM16.7458 4.585C16.7434 4.58542 16.7406 4.58566 16.737 4.58548L16.6869 5.58423C16.7654 5.58817 16.843 5.5832 16.9183 5.57001L16.7458 4.585ZM16.737 4.58548C16.6963 4.58344 16.6557 4.5817 16.6151 4.58024L16.5793 5.5796C16.6152 5.58089 16.651 5.58243 16.6869 5.58423L16.737 4.58548ZM16.0053 4.58031C15.9646 4.58178 15.924 4.58353 15.8834 4.58557L15.9337 5.58431C15.9695 5.5825 16.0054 5.58096 16.0413 5.57966L16.0053 4.58031ZM15.8834 4.58557C15.8798 4.58575 15.877 4.58551 15.8746 4.58509L15.7022 5.57013C15.7776 5.58331 15.8551 5.58827 15.9337 5.58431L15.8834 4.58557ZM15.8455 4.55884C15.8449 4.55651 15.8443 4.55367 15.8442 4.5501L14.8454 4.60042C14.8494 4.67899 14.8621 4.75566 14.8828 4.82931L15.8455 4.55884ZM15.8442 4.5501C15.844 4.54654 15.8442 4.54365 15.8446 4.54127L14.8596 4.36893C14.8464 4.44428 14.8415 4.52185 14.8454 4.60042L15.8442 4.5501ZM15.8709 4.51223C15.8732 4.51158 15.8761 4.51105 15.8796 4.51087L15.8293 3.51213C15.7508 3.51609 15.6741 3.52881 15.6004 3.5495L15.8709 4.51223ZM15.8796 4.51087C15.9206 4.5088 15.9616 4.50703 16.0026 4.50555L15.9666 3.5062C15.9208 3.50785 15.875 3.50983 15.8293 3.51213L15.8796 4.51087ZM16.6178 4.50549C16.6588 4.50695 16.6997 4.50872 16.7407 4.51077L16.7909 3.51203C16.7451 3.50973 16.6993 3.50777 16.6536 3.50613L16.6178 4.50549ZM16.7407 4.51077C16.7443 4.51095 16.7472 4.51148 16.7495 4.51214L17.0198 3.54936C16.9461 3.52868 16.8694 3.51597 16.7909 3.51203L16.7407 4.51077ZM16.7757 4.54118C16.7762 4.54355 16.7764 4.54644 16.7762 4.55L17.775 4.60014C17.7789 4.52156 17.7739 4.444 17.7607 4.36865L16.7757 4.54118ZM20.9368 5.78378C20.8873 5.84489 20.8455 5.91045 20.8117 5.97907L21.7088 6.42095C21.7099 6.41879 21.7114 6.41632 21.7136 6.41354L20.9368 5.78378ZM20.9266 7.07774C20.9738 7.13789 21.0282 7.19339 21.0894 7.24294L21.7191 6.46615C21.7163 6.4639 21.7144 6.46179 21.7129 6.4599L20.9266 7.07774ZM21.0894 7.24294C21.1197 7.26755 21.1497 7.29236 21.1795 7.31738L21.8234 6.55232C21.789 6.52334 21.7542 6.49461 21.7191 6.46615L21.0894 7.24294ZM21.6074 7.71335C21.6347 7.74108 21.6616 7.76904 21.6883 7.79721L22.4148 7.1101C22.3838 7.07728 22.3524 7.04471 22.3207 7.01241L21.6074 7.71335ZM21.6883 7.79721C21.7423 7.85437 21.8018 7.90439 21.8654 7.94693L22.4216 7.11585C22.4195 7.11451 22.4173 7.11269 22.4148 7.1101L21.6883 7.79721ZM22.9696 7.97775C23.0355 7.93881 23.0977 7.89219 23.1548 7.83813L22.4677 7.11158C22.4651 7.11403 22.4628 7.11572 22.4607 7.11695L22.9696 7.97775ZM23.1548 7.83813C23.212 7.78408 23.262 7.72459 23.3045 7.66102L22.4735 7.10486C22.4721 7.10687 22.4703 7.10912 22.4677 7.11157L23.1548 7.83813ZM23.3354 6.55678C23.2964 6.49094 23.2498 6.42875 23.1957 6.37159L22.4692 7.0587C22.4716 7.0613 22.4733 7.06365 22.4746 7.06572L23.3354 6.55678ZM23.1957 6.37159C23.1601 6.33386 23.124 6.29643 23.0875 6.25932L22.3743 6.96022C22.4062 6.99278 22.4379 7.02561 22.4692 7.0587L23.1957 6.37159ZM22.516 5.73036C22.4763 5.69701 22.4363 5.66397 22.396 5.63125L21.7662 6.40804C21.8018 6.43689 21.837 6.46601 21.8719 6.49538L22.516 5.73036ZM22.396 5.63125C22.3349 5.58171 22.2693 5.53995 22.2007 5.50615L21.7588 6.40322C21.761 6.40429 21.7634 6.40579 21.7662 6.40804L22.396 5.63125ZM21.102 5.621C21.0419 5.66826 20.9864 5.72267 20.9368 5.78378L21.7136 6.41354C21.7159 6.41077 21.718 6.40879 21.7199 6.40729L21.102 5.621ZM14.7666 4.61486C14.7433 4.5397 14.712 4.46855 14.6738 4.4023L13.8077 4.90225C13.8089 4.90434 13.8102 4.90697 13.8112 4.91038L14.7666 4.61486ZM13.6967 3.88691C13.6205 3.89275 13.5441 3.90712 13.4689 3.93037L13.7644 4.8857C13.7678 4.88465 13.7707 4.88417 13.7731 4.88399L13.6967 3.88691ZM13.4689 3.93037C13.4471 3.93713 13.4252 3.94396 13.4034 3.95088L13.7057 4.90409C13.7253 4.89789 13.7448 4.89176 13.7644 4.8857L13.4689 3.93037ZM13.0783 4.06038C13.0567 4.06806 13.0352 4.07582 13.0137 4.08366L13.3563 5.02315C13.3755 5.01613 13.3948 5.00917 13.4142 5.00228L13.0783 4.06038ZM13.0137 4.08366C12.9398 4.11061 12.8703 4.14537 12.806 4.18686L13.3483 5.02703C13.3504 5.02572 13.3529 5.02438 13.3563 5.02315L13.0137 4.08366ZM12.3397 5.18829C12.3494 5.26418 12.3675 5.33976 12.3945 5.41367L13.334 5.0711C13.3327 5.06775 13.3321 5.06492 13.3318 5.06253L12.3397 5.18829ZM12.3945 5.41367C12.4214 5.48758 12.4562 5.55709 12.4977 5.62136L13.3378 5.07905C13.3365 5.07702 13.3352 5.07446 13.334 5.0711L12.3945 5.41367ZM13.4991 6.08763C13.575 6.07801 13.6506 6.05987 13.7245 6.03292L13.3819 5.09343C13.3785 5.09465 13.3757 5.09527 13.3733 5.09557L13.4991 6.08763ZM13.7245 6.03292C13.7414 6.02677 13.7583 6.02067 13.7752 6.01464L13.4393 5.07274C13.4201 5.07957 13.401 5.08647 13.3819 5.09343L13.7245 6.03292ZM14.0306 5.92861C14.0477 5.92318 14.0649 5.91781 14.0821 5.9125L13.7865 4.95716C13.7671 4.96317 13.7477 4.96925 13.7283 4.9754L14.0306 5.92861ZM14.0821 5.9125C14.1572 5.88925 14.2284 5.85798 14.2946 5.81973L13.7947 4.95368C13.7926 4.95489 13.79 4.95611 13.7865 4.95716L14.0821 5.9125ZM14.81 4.84267C14.8042 4.7664 14.7898 4.69002 14.7666 4.61486L13.8112 4.91038C13.8123 4.91379 13.8128 4.91665 13.8129 4.91905L14.81 4.84267ZM23.3314 8.11153C23.2599 8.1443 23.1933 8.18452 23.1326 8.23101L23.7404 9.02513C23.7423 9.02366 23.7447 9.02211 23.748 9.02062L23.3314 8.11153ZM22.7479 9.26652C22.7636 9.3414 22.7877 9.41528 22.8205 9.4868L23.7295 9.0702C23.7281 9.06696 23.7272 9.06419 23.7267 9.06183L22.7479 9.26652ZM22.8205 9.4868C22.8369 9.52266 22.8531 9.55876 22.869 9.59511L23.7851 9.19432C23.7669 9.15271 23.7484 9.11134 23.7295 9.07021L22.8205 9.4868ZM23.0845 10.15C23.0973 10.1875 23.11 10.2253 23.1223 10.2633L24.0733 9.95426C24.0594 9.9113 24.0451 9.86856 24.0306 9.82604L23.0845 10.15ZM23.1223 10.2633C23.1466 10.3381 23.1789 10.4088 23.2181 10.4745L24.0769 9.96233C24.0757 9.96026 24.0745 9.95765 24.0733 9.95426L23.1223 10.2633ZM24.2024 10.976C24.2786 10.9691 24.3547 10.9536 24.4296 10.9293L24.1205 9.97827C24.1171 9.97937 24.1142 9.97989 24.1118 9.9801L24.2024 10.976ZM24.4296 10.9293C24.5044 10.905 24.5751 10.8727 24.6408 10.8335L24.1286 9.97467C24.1265 9.97591 24.1239 9.97716 24.1205 9.97827L24.4296 10.9293ZM25.1422 9.84923C25.1353 9.77305 25.1198 9.69688 25.0955 9.62206L24.1445 9.93114C24.1456 9.93453 24.1461 9.93738 24.1463 9.93979L25.1422 9.84923ZM25.0955 9.62206C25.0797 9.5735 25.0636 9.52514 25.0471 9.47698L24.1011 9.801C24.1158 9.84416 24.1303 9.88754 24.1445 9.93113L25.0955 9.62206ZM24.7695 8.76269C24.7489 8.71572 24.728 8.66897 24.7066 8.62245L23.7976 9.03904C23.8165 9.08032 23.8351 9.12184 23.8533 9.16358L24.7695 8.76269ZM24.7066 8.62245C24.6739 8.55093 24.6337 8.48442 24.5872 8.42367L23.793 9.03143C23.7945 9.03335 23.7961 9.0358 23.7976 9.03904L24.7066 8.62245ZM23.5517 8.03897C23.4768 8.05463 23.4029 8.07876 23.3314 8.11153L23.748 9.02062C23.7512 9.01914 23.754 9.01829 23.7563 9.0178L23.5517 8.03897ZM24.1772 15.9202C24.1744 15.9223 24.1718 15.9237 24.1696 15.9246L24.5684 16.8417C24.6385 16.8112 24.706 16.7726 24.7694 16.726L24.1772 15.9202ZM24.1309 15.9187C24.1291 15.9172 24.1271 15.9151 24.125 15.9122L23.3191 16.5043C23.3657 16.5677 23.4186 16.6247 23.4764 16.6748L24.1309 15.9187ZM24.1057 15.8876L23.8213 15.5473L23.054 16.1886L23.3384 16.5289L24.1057 15.8876ZM22.3992 13.8456L22.1147 13.5053L21.3474 14.1465L21.6318 14.4869L22.3992 13.8456ZM22.134 13.5298C22.1319 13.5269 22.1305 13.5244 22.1295 13.5222L21.2125 13.921C21.243 13.9911 21.2816 14.0586 21.3282 14.122L22.134 13.5298ZM22.1354 13.4835C22.137 13.4817 22.1391 13.4796 22.142 13.4775L21.5498 12.6717C21.4864 12.7183 21.4294 12.7711 21.3794 12.829L22.1354 13.4835ZM22.142 13.4775C22.1449 13.4754 22.1474 13.474 22.1496 13.4731L21.7508 12.556C21.6807 12.5865 21.6132 12.6251 21.5498 12.6717L22.142 13.4775ZM22.1883 13.479C22.1901 13.4806 22.1921 13.4826 22.1943 13.4855L23.0001 12.8934C22.9535 12.83 22.9006 12.773 22.8428 12.7229L22.1883 13.479ZM22.221 13.5188L22.3916 13.7137L23.144 13.0549L22.9733 12.8601L22.221 13.5188ZM23.2448 14.688L23.4154 14.8829L24.1678 14.2241L23.9971 14.0292L23.2448 14.688ZM24.2916 14.5478C24.2913 14.5274 24.2912 14.4976 24.2913 14.4586L23.2913 14.4571C23.2912 14.4974 23.2913 14.5322 23.2916 14.5592L24.2916 14.5478ZM24.2944 13.9831C24.2947 13.9519 24.2949 13.9199 24.2952 13.8873L23.2953 13.8789C23.295 13.9115 23.2947 13.9435 23.2945 13.9748L24.2944 13.9831ZM24.2952 13.8873C24.2959 13.8071 24.2966 13.7231 24.2973 13.6372L23.2973 13.6291C23.2966 13.7148 23.2959 13.7986 23.2953 13.8789L24.2952 13.8873ZM24.2997 12.3758C24.2982 12.2636 24.2955 12.1595 24.2899 12.0918L23.2933 12.1746C23.2956 12.2027 23.2982 12.2734 23.2998 12.3896L24.2997 12.3758ZM24.2899 12.0918C24.2896 12.0882 24.2897 12.0853 24.2901 12.0829L23.2999 11.9428C23.2892 12.0185 23.2868 12.0962 23.2933 12.1746L24.2899 12.0918ZM24.3154 12.0531C24.3177 12.0523 24.3205 12.0517 24.324 12.0514L24.2412 11.0548C24.1628 11.0614 24.0866 11.0766 24.0137 11.0996L24.3154 12.0531ZM24.324 12.0514C24.3276 12.0511 24.3305 12.0513 24.3329 12.0516L24.473 11.0615C24.3973 11.0507 24.3196 11.0483 24.2412 11.0548L24.324 12.0514ZM24.3628 12.0769C24.3635 12.0792 24.3641 12.082 24.3644 12.0856L25.361 12.0027C25.3545 11.9243 25.3393 11.8481 25.3162 11.7752L24.3628 12.0769ZM24.3627 12.0448L24.3632 12.4241L25.3632 12.4227L25.3627 12.0435L24.3627 12.0448ZM24.3658 14.3204L24.3663 14.6996L25.3663 14.6983L25.3658 14.319L24.3658 14.3204ZM25.1635 15.101L25.3736 14.9457L24.7792 14.1416L24.5691 14.2969L25.1635 15.101ZM26.4238 14.1694L26.6339 14.0141L26.0394 13.21L25.8294 13.3652L26.4238 14.1694ZM26.6327 14.0149C26.6356 14.0128 26.6382 14.0114 26.6404 14.0105L26.2416 13.0934C26.1714 13.1239 26.104 13.1625 26.0406 13.2091L26.6327 14.0149ZM26.6791 14.0164C26.6809 14.018 26.6829 14.02 26.685 14.0229L27.4908 13.4308C27.4443 13.3674 27.3914 13.3104 27.3336 13.2603L26.6791 14.0164ZM26.685 14.0229C26.6871 14.0258 26.6885 14.0283 26.6895 14.0306L27.6065 13.6318C27.576 13.5616 27.5374 13.4942 27.4908 13.4308L26.685 14.0229ZM26.6836 14.0693C26.682 14.0711 26.6799 14.0731 26.677 14.0752L27.2692 14.881C27.3326 14.8344 27.3896 14.7816 27.4396 14.7238L26.6836 14.0693ZM26.6762 14.0758L26.3191 14.3394L26.9129 15.144L27.27 14.8804L26.6762 14.0758ZM24.5335 15.6572L24.1764 15.9208L24.7702 16.7254L25.1274 16.4618L24.5335 15.6572ZM19.0675 5.56328L18.7255 6.50298L19.0675 5.56328ZM18.686 5.43491L18.9815 4.47957L18.9815 4.47957L18.686 5.43491ZM19.4884 5.72764L19.1024 6.65017L19.4884 5.72764ZM20.1915 5.43927L21.1141 5.8252V5.8252L20.1915 5.43927ZM19.9032 4.7361L19.5172 5.65863L19.5172 5.65863L19.9032 4.7361ZM19.4351 4.5533L19.7772 3.61361L19.7772 3.61361L19.4351 4.5533ZM19.0036 4.40811L18.7081 5.36345L18.7081 5.36345L19.0036 4.40811ZM18.3314 4.7627L17.3761 4.46718L17.3761 4.46719L18.3314 4.7627ZM17.2756 4.57507L18.2743 4.6252V4.6252L17.2756 4.57507ZM16.7119 5.08485L16.6618 6.0836L16.7119 5.08485ZM16.7658 4.0114L16.8159 3.01266L16.7658 4.0114ZM15.8545 4.0115L15.8042 3.01277L15.8545 4.0115ZM15.3448 4.57526L16.3435 4.52495L16.3435 4.52494L15.3448 4.57526ZM15.9086 5.08494L15.9589 6.08367H15.9589L15.9086 5.08494ZM21.3252 6.09866L22.102 6.72842L22.102 6.72842L21.3252 6.09866ZM22.0811 6.01965L21.4513 6.79644V6.79644L22.0811 6.01965ZM21.4042 6.85455L20.7745 7.63133L20.7745 7.63134L21.4042 6.85455ZM22.0516 7.45365L21.325 8.14076L22.0516 7.45365ZM22.8113 7.47485L22.1242 6.7483L22.1242 6.7483L22.8113 7.47485ZM22.8325 6.71515L22.1059 7.40225L22.1059 7.40225L22.8325 6.71515ZM14.2889 4.76262L15.2442 4.4671V4.4671L14.2889 4.76262ZM13.9343 5.43483L13.6388 4.4795L13.6388 4.4795L13.9343 5.43483ZM13.6167 4.40803L13.3212 3.4527L13.3212 3.4527L13.6167 4.40803ZM13.185 4.5534L13.5276 5.4929H13.5276L13.185 4.5534ZM12.8642 5.24239L11.9247 5.58495L11.9247 5.58495L12.8642 5.24239ZM13.5532 5.56318L13.8958 6.50267L13.8958 6.50267L13.5532 5.56318ZM23.5397 8.56608L23.9563 9.47517L23.9563 9.47517L23.5397 8.56608ZM24.2521 8.83075L25.1612 8.41415L25.1612 8.41415L24.2521 8.83075ZM23.275 9.2785L24.1841 8.86191L24.1841 8.86191L23.275 9.2785ZM23.5978 10.1088L22.6468 10.4179L22.6468 10.4179L23.5978 10.1088ZM24.275 10.4538L23.9659 9.50275H23.9659L24.275 10.4538ZM24.62 9.7766L23.669 10.0857L23.669 10.0857L24.62 9.7766ZM24.4733 16.3231L25.0655 17.1289L25.0672 17.1277L24.4733 16.3231ZM23.722 16.2083L24.5279 15.6161C24.5156 15.5994 24.5027 15.583 24.4894 15.567L23.722 16.2083ZM26.9731 14.4781L26.3809 13.6723L26.3793 13.6735L26.9731 14.4781ZM27.0879 13.7268L27.8938 13.1347L27.8938 13.1347L27.0879 13.7268ZM26.3367 13.612L25.7445 12.8062L25.7422 12.8079L26.3367 13.612ZM24.8663 14.6989L23.8663 14.7003C23.8668 15.0776 24.0796 15.4225 24.4166 15.5921C24.7536 15.7618 25.1574 15.7273 25.4608 15.5031L24.8663 14.6989ZM24.8627 12.0442L25.8627 12.0428C25.8627 12.0156 25.8615 11.9884 25.8593 11.9613L24.8627 12.0442ZM23.7916 12.1332L22.795 12.216V12.216L23.7916 12.1332ZM23.7952 13.8831L24.7952 13.8915L23.7952 13.8831ZM23.7916 14.5535L23.0393 15.2123C23.315 15.5272 23.7578 15.6371 24.1488 15.4875C24.5398 15.338 24.7963 14.9607 24.7915 14.5421L23.7916 14.5535ZM22.5972 13.1894L21.7914 13.7816C21.8082 13.8046 21.8261 13.8268 21.8448 13.8482L22.5972 13.1894ZM21.8459 13.0746L22.4381 13.8804L22.4381 13.8804L21.8459 13.0746ZM21.7311 13.8259L20.9252 14.418C20.9376 14.4348 20.9504 14.4512 20.9637 14.4672L21.7311 13.8259ZM23.9573 16.3972L24.7632 15.8051C24.7508 15.7883 24.738 15.7719 24.7247 15.756L23.9573 16.3972ZM24.7086 16.5121L25.3008 17.3179L25.3024 17.3167L24.7086 16.5121ZM24.7153 15.7448C24.3611 15.321 23.7305 15.2645 23.3067 15.6187C22.8829 15.9728 22.8265 16.6035 23.1806 17.0273L24.7153 15.7448ZM22.8325 13.3784L22.0266 13.9706C22.0435 13.9935 22.0614 14.0158 22.0801 14.0372L22.8325 13.3784ZM22.9931 12.2784C22.4836 12.0653 21.8978 12.3056 21.6847 12.8151C21.4716 13.3247 21.7119 13.9104 22.2214 14.1235L22.9931 12.2784ZM27.3232 13.9158L26.5174 14.508L26.5174 14.508L27.3232 13.9158ZM27.4764 12.8127C26.9658 12.6023 26.3812 12.8457 26.1708 13.3563C25.9604 13.8669 26.2038 14.4515 26.7144 14.6619L27.4764 12.8127ZM27.2084 14.6671L26.6162 13.8613L26.6146 13.8625L27.2084 14.6671ZM25.098 12.2331L26.098 12.2318C26.098 12.2046 26.0968 12.1774 26.0946 12.1503L25.098 12.2331ZM25.1506 10.8571C24.6404 10.6457 24.0554 10.8879 23.844 11.3981C23.6325 11.9083 23.8748 12.4933 24.385 12.7047L25.1506 10.8571ZM23.0389 15.1322C23.4028 15.5477 24.0346 15.5896 24.4501 15.2257C24.8656 14.8619 24.9074 14.2301 24.5436 13.8146L23.0389 15.1322ZM24.1011 14.5267C24.1019 15.079 24.5502 15.5261 25.1025 15.5254C25.6548 15.5246 26.1019 15.0763 26.1011 14.524L24.1011 14.5267ZM23.182 17.0289C23.5361 17.4526 24.1668 17.5091 24.5905 17.1549C25.0143 16.8008 25.0708 16.1702 24.7166 15.7464L23.182 17.0289ZM24.7233 15.7544C24.3692 15.3306 23.7385 15.2741 23.3148 15.6283C22.891 15.9825 22.8345 16.6131 23.1887 17.0369L24.7233 15.7544ZM23.3845 17.2418C23.802 17.6033 24.4335 17.5578 24.795 17.1402C25.1565 16.7227 25.111 16.0911 24.6935 15.7297L23.3845 17.2418ZM24.2055 15.6551C23.699 15.8753 23.467 16.4644 23.6872 16.9709C23.9075 17.4774 24.4966 17.7094 25.0031 17.4892L24.2055 15.6551ZM25.6596 17.0531C26.1039 16.7251 26.1983 16.099 25.8703 15.6547C25.5424 15.2103 24.9163 15.1159 24.4719 15.4439L25.6596 17.0531ZM26.2575 14.1261C25.8131 14.454 25.7187 15.0801 26.0467 15.5245C26.3747 15.9689 27.0008 16.0632 27.4451 15.7352L26.2575 14.1261ZM28.0529 15.24C28.4144 14.8224 28.369 14.1909 27.9514 13.8294C27.5338 13.4679 26.9023 13.5134 26.5408 13.931L28.0529 15.24ZM26.4663 14.4189C26.6865 14.9254 27.2756 15.1574 27.7821 14.9372C28.2885 14.7169 28.5206 14.1278 28.3004 13.6214L26.4663 14.4189ZM28.0552 13.2308C27.6949 12.8122 27.0635 12.7648 26.6449 13.1251C26.2263 13.4853 26.1789 14.1167 26.5392 14.5353L28.0552 13.2308ZM26.6816 14.6468C27.1742 14.8964 27.7759 14.6993 28.0255 14.2066C28.2751 13.714 28.0781 13.1123 27.5854 12.8627L26.6816 14.6468ZM22.1889 14.1084C22.6805 14.3602 23.2831 14.1659 23.5349 13.6744C23.7867 13.1828 23.5923 12.5802 23.1008 12.3284L22.1889 14.1084ZM23.5651 12.6943C23.2052 12.2754 22.5739 12.2276 22.155 12.5875C21.7361 12.9474 21.6883 13.5788 22.0482 13.9977L23.5651 12.6943ZM22.2171 14.1936C22.5809 14.6091 23.2127 14.651 23.6282 14.2872C24.0437 13.9233 24.0856 13.2916 23.7218 12.8761L22.2171 14.1936ZM24.4066 13.6582C24.0428 13.2427 23.411 13.2008 22.9955 13.5646C22.58 13.9285 22.5381 14.5602 22.902 14.9757L24.4066 13.6582ZM24.3205 12.6719C24.7916 12.9603 25.4072 12.8122 25.6955 12.3412C25.9839 11.8702 25.8359 11.2546 25.3648 10.9662L24.3205 12.6719ZM26.0563 11.9141C25.926 11.3774 25.3852 11.048 24.8485 11.1784C24.3119 11.3087 23.9825 11.8495 24.1128 12.3862L26.0563 11.9141ZM24.0984 12.5619C24.0992 13.1142 24.5475 13.5613 25.0998 13.5606C25.6521 13.5598 26.0992 13.1115 26.0984 12.5592L24.0984 12.5619ZM26.1007 14.1965C26.0999 13.6443 25.6516 13.1972 25.0993 13.1979C24.547 13.1987 24.0999 13.647 24.1007 14.1993L26.1007 14.1965ZM19.3489 4.60175C18.8286 4.41648 18.2566 4.68806 18.0714 5.20835C17.8861 5.72863 18.1577 6.30059 18.678 6.48586L19.3489 4.60175ZM18.4387 6.40533C18.9651 6.57225 19.5272 6.28079 19.6941 5.75434C19.8611 5.22788 19.5696 4.66579 19.0431 4.49887L18.4387 6.40533ZM19.0756 4.52073C18.5973 4.24462 17.9857 4.40853 17.7096 4.88684C17.4335 5.36515 17.5974 5.97673 18.0757 6.25284L19.0756 4.52073ZM17.3118 4.80457C17.2696 5.35524 17.6818 5.83584 18.2325 5.87802C18.7831 5.9202 19.2637 5.50799 19.3059 4.95732L17.3118 4.80457ZM19.2456 5.15231C19.5217 4.674 19.3578 4.06242 18.8795 3.7863C18.4012 3.51019 17.7896 3.6741 17.5135 4.15241L19.2456 5.15231ZM18.9618 3.38845C18.4111 3.34627 17.9305 3.75848 17.8883 4.30915C17.8461 4.85982 18.2584 5.34042 18.809 5.3826L18.9618 3.38845ZM18.7635 5.38079C19.2899 5.5477 19.852 5.25624 20.019 4.72978C20.1859 4.20333 19.8944 3.64123 19.3679 3.47432L18.7635 5.38079ZM19.7094 3.58921C19.1891 3.40394 18.6172 3.67553 18.4319 4.19581C18.2466 4.7161 18.5182 5.28806 19.0385 5.47332L19.7094 3.58921ZM19.1544 5.51551C19.6721 5.70779 20.2477 5.44396 20.44 4.92623C20.6322 4.4085 20.3684 3.83292 19.8507 3.64064L19.1544 5.51551ZM20.2164 3.78345C19.7054 3.57384 19.1213 3.81814 18.9117 4.3291C18.702 4.84006 18.9463 5.4242 19.4573 5.63381L20.2164 3.78345ZM19.4275 5.60862C19.8771 5.92941 20.5016 5.82501 20.8224 5.37544C21.1432 4.92587 21.0388 4.30137 20.5892 3.98058L19.4275 5.60862ZM21.2105 5.49555C21.3054 4.95148 20.9412 4.4335 20.3972 4.33861C19.8531 4.24372 19.3351 4.60786 19.2402 5.15193L21.2105 5.49555ZM19.319 4.96364C18.9982 5.41321 19.1026 6.03771 19.5522 6.3585C20.0017 6.67929 20.6262 6.57489 20.947 6.12532L19.319 4.96364ZM19.4321 6.74661C19.9761 6.8415 20.4941 6.47736 20.589 5.93329C20.6839 5.38922 20.3198 4.87124 19.7757 4.77635L19.4321 6.74661ZM19.8082 4.77775C19.2973 4.56815 18.7131 4.81246 18.5035 5.32343C18.2939 5.8344 18.5383 6.41853 19.0492 6.62813L19.8082 4.77775ZM18.78 6.523C19.2977 6.71527 19.8733 6.45143 20.0656 5.9337C20.2578 5.41596 19.994 4.84039 19.4763 4.64811L18.78 6.523ZM16.2935 4.42359C16.1442 4.95532 16.4542 5.50738 16.986 5.65666C17.5177 5.80594 18.0697 5.49591 18.219 4.96418L16.2935 4.42359ZM17.0046 6.06251C17.5486 5.96723 17.9124 5.44898 17.8171 4.90498C17.7218 4.36097 17.2036 3.99722 16.6596 4.0925L17.0046 6.06251ZM16.633 4.08056C16.0811 4.0608 15.6176 4.49221 15.5979 5.04414C15.5781 5.59607 16.0095 6.05952 16.5614 6.07928L16.633 4.08056ZM16.0593 6.07934C16.6112 6.05946 17.0425 5.59593 17.0226 5.044C17.0027 4.49207 16.5392 4.06076 15.9873 4.08063L16.0593 6.07934ZM15.9607 4.09258C15.4167 3.99739 14.8986 4.36125 14.8034 4.90527C14.7082 5.44929 15.072 5.96747 15.6161 6.06265L15.9607 4.09258ZM14.4014 4.96455C14.5508 5.49625 15.1029 5.80618 15.6346 5.6568C16.1663 5.50742 16.4763 4.9553 16.3269 4.4236L14.4014 4.96455ZM16.3372 4.62745C16.4323 4.08342 16.0685 3.56525 15.5245 3.47006C14.9805 3.37488 14.4623 3.73874 14.3671 4.28276L16.3372 4.62745ZM15.4652 3.06814C14.9335 3.21752 14.6236 3.76964 14.7729 4.30134C14.9223 4.83304 15.4744 5.14297 16.0061 4.99359L15.4652 3.06814ZM16.0206 5.00523C16.5725 4.98536 17.0038 4.52182 16.984 3.96989C16.9641 3.41797 16.5005 2.98665 15.9486 3.00653L16.0206 5.00523ZM16.6715 3.00645C16.1195 2.98669 15.6561 3.41809 15.6363 3.97003C15.6166 4.52196 16.048 4.98541 16.5999 5.00517L16.6715 3.00645ZM16.6143 4.99353C17.1461 5.14281 17.6981 4.83277 17.8474 4.30104C17.9967 3.76932 17.6866 3.21725 17.1549 3.06797L16.6143 4.99353ZM18.2532 4.28239C18.158 3.73838 17.6397 3.37462 17.0957 3.46991C16.5517 3.56519 16.188 4.08344 16.2832 4.62744L18.2532 4.28239ZM20.3632 5.75813C20.1191 6.25357 20.3229 6.85304 20.8184 7.09708C21.3138 7.34113 21.9133 7.13734 22.1573 6.6419L20.3632 5.75813ZM22.106 6.15097C21.7648 5.71671 21.1361 5.64129 20.7019 5.98252C20.2676 6.32375 20.1922 6.95241 20.5334 7.38667L22.106 6.15097ZM20.8575 7.69991C21.28 8.05556 21.9109 8.00134 22.2665 7.57882C22.6222 7.15629 22.5679 6.52545 22.1454 6.1698L20.8575 7.69991ZM22.6773 6.66194C22.2902 6.26804 21.657 6.26254 21.2631 6.64966C20.8692 7.03677 20.8637 7.66991 21.2508 8.06382L22.6773 6.66194ZM21.5873 8.36247C22.0463 8.66963 22.6674 8.54654 22.9746 8.08755C23.2817 7.62855 23.1586 7.00747 22.6996 6.70031L21.5873 8.36247ZM22.2062 6.68654C21.7308 6.96762 21.5733 7.58088 21.8544 8.05629C22.1354 8.53169 22.7487 8.68923 23.2241 8.40815L22.2062 6.68654ZM23.7201 7.93909C24.0272 7.4801 23.9042 6.85901 23.4452 6.55186C22.9862 6.2447 22.3651 6.36779 22.0579 6.82678L23.7201 7.93909ZM22.0442 7.32019C22.3252 7.7956 22.9385 7.95314 23.4139 7.67206C23.8893 7.39098 24.0468 6.77772 23.7658 6.30231L22.0442 7.32019ZM23.4441 5.90887C23.057 5.51495 22.4239 5.50942 22.03 5.89652C21.6361 6.28361 21.6305 6.91676 22.0176 7.31068L23.4441 5.90887ZM21.5499 6.87789C21.9724 7.23357 22.6033 7.17939 22.959 6.75688C23.3146 6.33437 23.2605 5.70353 22.838 5.34785L21.5499 6.87789ZM22.4216 5.05762C21.9262 4.81357 21.3267 5.01736 21.0827 5.5128C20.8386 6.00824 21.0424 6.60771 21.5379 6.85176L22.4216 5.05762ZM22.0288 6.80044C22.4631 6.45921 22.5385 5.83055 22.1972 5.3963C21.856 4.96204 21.2274 4.88662 20.7931 5.22785L22.0288 6.80044ZM15.1068 4.15232C14.8307 3.67401 14.2191 3.51011 13.7408 3.78622C13.2625 4.06234 13.0986 4.67392 13.3747 5.15223L15.1068 4.15232ZM13.8113 5.38253C14.362 5.34034 14.7742 4.85974 14.732 4.30907C14.6898 3.75839 14.2092 3.34618 13.6585 3.38837L13.8113 5.38253ZM13.2523 3.47427C12.7258 3.64122 12.4344 4.20333 12.6014 4.72978C12.7683 5.25623 13.3304 5.54765 13.8569 5.3807L13.2523 3.47427ZM13.5821 5.47323C14.1023 5.28772 14.3736 4.71563 14.1881 4.19543C14.0026 3.67524 13.4305 3.40392 12.9103 3.58943L13.5821 5.47323ZM12.5349 3.76677C12.0708 4.06628 11.9375 4.68525 12.237 5.14926C12.5365 5.61328 13.1555 5.74663 13.6195 5.44712L12.5349 3.76677ZM13.8278 4.99964C13.7584 4.45174 13.2579 4.06389 12.71 4.13335C12.1621 4.20281 11.7743 4.70327 11.8437 5.25117L13.8278 4.99964ZM12.0776 5.89252C12.3771 6.35654 12.996 6.48989 13.4601 6.19038C13.9241 5.89087 14.0574 5.27191 13.7579 4.80789L12.0776 5.89252ZM13.3104 4.59954C12.7625 4.669 12.3747 5.16947 12.4441 5.71737C12.5136 6.26527 13.0141 6.65312 13.562 6.58366L13.3104 4.59954ZM13.9431 6.48558C14.4633 6.30007 14.7346 5.72798 14.5491 5.20779C14.3636 4.68759 13.7915 4.41628 13.2713 4.60179L13.9431 6.48558ZM13.5772 4.49879C13.0507 4.66574 12.7593 5.22785 12.9263 5.7543C13.0932 6.28075 13.6553 6.57217 14.1818 6.40522L13.5772 4.49879ZM14.5446 6.25276C15.0229 5.97664 15.1868 5.36506 14.9107 4.88675C14.6346 4.40845 14.023 4.24454 13.5447 4.52066L14.5446 6.25276ZM13.3144 4.95724C13.3566 5.50791 13.8372 5.92013 14.3879 5.87794C14.9385 5.83576 15.3507 5.35515 15.3086 4.80448L13.3144 4.95724ZM22.8287 7.83395C22.3901 8.16961 22.3067 8.79725 22.6424 9.23583C22.978 9.67441 23.6057 9.75784 24.0442 9.42219L22.8287 7.83395ZM24.2161 8.95948C24.1031 8.41889 23.5732 8.0723 23.0326 8.18535C22.492 8.2984 22.1454 8.82828 22.2585 9.36887L24.2161 8.95948ZM22.4109 9.79551C22.6322 10.3015 23.2218 10.5322 23.7278 10.3109C24.2338 10.0895 24.4646 9.49991 24.2432 8.99392L22.4109 9.79551ZM24.5036 9.66408C24.3247 9.14157 23.7561 8.86302 23.2336 9.04192C22.7111 9.22081 22.4325 9.78941 22.6114 10.3119L24.5036 9.66408ZM22.7887 10.7307C23.0715 11.205 23.6854 11.3602 24.1597 11.0773C24.6341 10.7944 24.7893 10.1806 24.5064 9.70622L22.7887 10.7307ZM24.0666 9.48216C23.5165 9.53217 23.1112 10.0186 23.1612 10.5686C23.2112 11.1186 23.6976 11.524 24.2477 11.4739L24.0666 9.48216ZM24.8969 11.263C25.3712 10.9801 25.5264 10.3662 25.2435 9.89188C24.9606 9.41755 24.3468 9.26235 23.8724 9.54524L24.8969 11.263ZM23.6484 9.98506C23.6984 10.5351 24.1848 10.9404 24.7348 10.8904C25.2848 10.8404 25.6902 10.354 25.6402 9.80396L23.6484 9.98506ZM25.5201 9.31497C25.3412 8.79248 24.7726 8.51399 24.2501 8.69294C23.7276 8.87189 23.4491 9.44052 23.628 9.96301L25.5201 9.31497ZM23.3953 9.36402C23.6167 9.86999 24.2063 10.1007 24.7123 9.87926C25.2182 9.65786 25.4489 9.06821 25.2275 8.56225L23.3953 9.36402ZM24.9842 8.11979C24.6486 7.68121 24.0209 7.59778 23.5823 7.93344C23.1438 8.26909 23.0603 8.89674 23.396 9.33532L24.9842 8.11979ZM23.8587 9.50721C24.3993 9.39416 24.7459 8.86428 24.6328 8.32369C24.5198 7.7831 23.9899 7.43651 23.4493 7.54956L23.8587 9.50721ZM23.9702 15.4661C23.4638 15.6864 23.2317 16.2755 23.452 16.7819C23.6722 17.2884 24.2613 17.5205 24.7678 17.3002L23.9702 15.4661ZM23.1492 17.0528C23.5667 17.4143 24.1983 17.3688 24.5597 16.9513C24.9212 16.5337 24.8757 15.9022 24.4582 15.5407L23.1492 17.0528ZM24.2049 15.2267C23.8508 14.8029 23.2201 14.7464 22.7964 15.1006C22.3726 15.4548 22.3161 16.0854 22.6703 16.5092L24.2049 15.2267ZM21.2482 14.8075C21.6023 15.2313 22.233 15.2877 22.6568 14.9336C23.0805 14.5794 23.137 13.9488 22.7828 13.525L21.2482 14.8075ZM22.588 13.3228C22.3678 12.8163 21.7787 12.5843 21.2722 12.8045C20.7657 13.0248 20.5337 13.6139 20.7539 14.1203L22.588 13.3228ZM21.0013 12.5017C20.6399 12.9193 20.6853 13.5508 21.1029 13.9123C21.5205 14.2738 22.152 14.2283 22.5135 13.8107L21.0013 12.5017ZM22.349 13.9316C22.8555 13.7114 23.0875 13.1222 22.8673 12.6158C22.647 12.1093 22.0579 11.8773 21.5514 12.0975L22.349 13.9316ZM23.1701 12.3449C22.7525 11.9834 22.121 12.0289 21.7595 12.4465C21.398 12.864 21.4435 13.4955 21.8611 13.857L23.1701 12.3449ZM22.0155 14.0431C22.3793 14.4586 23.0111 14.5005 23.4266 14.1366C23.8421 13.7728 23.884 13.141 23.5201 12.7255L22.0155 14.0431ZM24.3733 13.6999C24.0095 13.2843 23.3777 13.2425 22.9622 13.6063C22.5467 13.9701 22.5048 14.6019 22.8686 15.0174L24.3733 13.6999ZM24.7913 14.4593C24.7921 13.907 24.3451 13.4586 23.7928 13.4578C23.2405 13.457 22.7921 13.904 22.7913 14.4563L24.7913 14.4593ZM22.7945 13.9706C22.7899 14.5229 23.2338 14.9743 23.7861 14.9789C24.3384 14.9835 24.7898 14.5395 24.7944 13.9873L22.7945 13.9706ZM24.7973 13.6412C24.8017 13.0889 24.3576 12.6376 23.8053 12.6332C23.2531 12.6287 22.8018 13.0729 22.7973 13.6251L24.7973 13.6412ZM22.7999 12.3966C22.8075 12.9488 23.2614 13.3903 23.8136 13.3826C24.3658 13.375 24.8073 12.9211 24.7997 12.3689L22.7999 12.3966ZM24.7851 12.153C24.8625 11.6062 24.482 11.1001 23.9351 11.0227C23.3883 10.9453 22.8823 11.3259 22.8049 11.8727L24.7851 12.153ZM23.8628 10.6229C23.3363 10.7896 23.0445 11.3515 23.2111 11.8781C23.3777 12.4046 23.9397 12.6964 24.4662 12.5297L23.8628 10.6229ZM24.2628 12.5467C24.8096 12.6241 25.3157 12.2435 25.3931 11.6967C25.4705 11.1498 25.0899 10.6438 24.5431 10.5664L24.2628 12.5467ZM25.7929 11.6243C25.6262 11.0978 25.0643 10.806 24.5378 10.9726C24.0112 11.1393 23.7194 11.7012 23.8861 12.2277L25.7929 11.6243ZM23.8632 12.4248C23.864 12.9771 24.3123 13.4242 24.8646 13.4234C25.4169 13.4227 25.864 12.9743 25.8632 12.422L23.8632 12.4248ZM25.8658 14.3183C25.8651 13.766 25.4167 13.3189 24.8644 13.3197C24.3122 13.3204 23.8651 13.7688 23.8658 14.3211L25.8658 14.3183ZM25.6708 15.3478C26.1149 15.0195 26.2088 14.3933 25.8805 13.9492C25.5522 13.5051 24.926 13.4112 24.4819 13.7395L25.6708 15.3478ZM25.5322 12.9632C25.0881 13.2915 24.9942 13.9176 25.3225 14.3617C25.6508 14.8059 26.2769 14.8997 26.7211 14.5714L25.5322 12.9632ZM26.8398 14.469C27.3462 14.2488 27.5783 13.6596 27.358 13.1532C27.1378 12.6467 26.5487 12.4147 26.0422 12.6349L26.8398 14.469ZM27.6608 12.8823C27.2433 12.5208 26.6117 12.5663 26.2503 12.9839C25.8888 13.4014 25.9343 14.0329 26.3518 14.3944L27.6608 12.8823ZM26.231 14.2299C26.4512 14.7364 27.0403 14.9685 27.5468 14.7482C28.0533 14.528 28.2853 13.9389 28.0651 13.4324L26.231 14.2299ZM27.8177 15.051C28.1791 14.6334 28.1337 14.0019 27.7161 13.6404C27.2985 13.279 26.667 13.3244 26.3055 13.742L27.8177 15.051ZM26.0222 13.9371C25.5778 14.2651 25.4834 14.8912 25.8114 15.3355C26.1394 15.7799 26.7655 15.8742 27.2098 15.5463L26.0222 13.9371ZM25.4243 16.8641C25.8686 16.5362 25.963 15.9101 25.635 15.4657C25.3071 15.0213 24.681 14.927 24.2366 15.2549L25.4243 16.8641ZM23.1806 17.0273L23.182 17.0289L24.7166 15.7464L24.7153 15.7448L23.1806 17.0273ZM23.1887 17.0369L23.19 17.0385L24.7247 15.756L24.7233 15.7544L23.1887 17.0369ZM23.1515 16.9894C23.2203 17.083 23.2986 17.1675 23.3845 17.2418L24.6935 15.7297C24.7196 15.7523 24.743 15.7777 24.7632 15.8051L23.1515 16.9894ZM25.0031 17.4892C25.1072 17.4439 25.2071 17.3867 25.3008 17.3179L24.1165 15.7062C24.1438 15.6861 24.1738 15.6689 24.2055 15.6551L25.0031 17.4892ZM25.3024 17.3167L25.6596 17.0531L24.4719 15.4439L24.1148 15.7075L25.3024 17.3167ZM27.4451 15.7352L27.8022 15.4717L26.6146 13.8625L26.2575 14.1261L27.4451 15.7352ZM27.8006 15.4729C27.8942 15.4041 27.9786 15.3258 28.0529 15.24L26.5408 13.931C26.5635 13.9048 26.5889 13.8814 26.6162 13.8613L27.8006 15.4729ZM28.3004 13.6214C28.2551 13.5172 28.1979 13.4173 28.1291 13.3237L26.5174 14.508C26.4973 14.4806 26.4801 14.4507 26.4663 14.4189L28.3004 13.6214ZM28.1291 13.3237C28.1055 13.2917 28.0809 13.2607 28.0552 13.2308L26.5392 14.5353C26.5315 14.5264 26.5243 14.5173 26.5174 14.508L28.1291 13.3237ZM27.5854 12.8627C27.5496 12.8445 27.5132 12.8279 27.4764 12.8127L26.7144 14.6619C26.7034 14.6573 26.6924 14.6523 26.6816 14.6468L27.5854 12.8627ZM22.2214 14.1235C22.2105 14.1189 22.1996 14.1139 22.1889 14.1084L23.1008 12.3284C23.0654 12.3103 23.0295 12.2936 22.9931 12.2784L22.2214 14.1235ZM22.0482 13.9977C22.0406 13.9888 22.0334 13.9798 22.0266 13.9706L23.6383 12.7863C23.615 12.7546 23.5906 12.7239 23.5651 12.6943L22.0482 13.9977ZM22.0801 14.0372L22.2171 14.1936L23.7218 12.8761L23.5848 12.7196L22.0801 14.0372ZM22.902 14.9757L23.0389 15.1322L24.5436 13.8146L24.4066 13.6582L22.902 14.9757ZM24.385 12.7047C24.3624 12.6954 24.3409 12.6844 24.3205 12.6719L25.3648 10.9662C25.2968 10.9245 25.2252 10.888 25.1506 10.8571L24.385 12.7047ZM24.1128 12.3862C24.1072 12.3629 24.1034 12.3394 24.1014 12.316L26.0946 12.1503C26.0879 12.07 26.075 11.9911 26.0563 11.9141L24.1128 12.3862ZM24.098 12.2345L24.0984 12.5619L26.0984 12.5592L26.098 12.2318L24.098 12.2345ZM24.1007 14.1993L24.1011 14.5267L26.1011 14.524L26.1007 14.1965L24.1007 14.1993ZM19.4096 4.62359C19.3893 4.61623 19.3691 4.60895 19.3489 4.60175L18.678 6.48586C18.6938 6.4915 18.7097 6.49721 18.7255 6.50298L19.4096 4.62359ZM19.0431 4.49887C19.0226 4.49236 19.0021 4.48593 18.9815 4.47957L18.3905 6.39025C18.4066 6.39522 18.4226 6.40024 18.4387 6.40533L19.0431 4.49887ZM18.9815 4.47957C19.014 4.48962 19.0456 4.50342 19.0756 4.52073L18.0757 6.25284C18.1741 6.30961 18.2795 6.3559 18.3905 6.39025L18.9815 4.47957ZM19.3059 4.95732C19.3033 4.99185 19.2968 5.02575 19.2868 5.05822L17.3761 4.46719C17.3418 4.57822 17.3204 4.69136 17.3118 4.80457L19.3059 4.95732ZM19.2868 5.05822C19.2767 5.09068 19.2629 5.12232 19.2456 5.15231L17.5135 4.15241C17.4567 4.25074 17.4104 4.35615 17.3761 4.46718L19.2868 5.05822ZM18.809 5.3826C18.7745 5.37996 18.7406 5.37349 18.7081 5.36345L19.2992 3.45277C19.1881 3.41843 19.075 3.39712 18.9618 3.38845L18.809 5.3826ZM18.7081 5.36345C18.7266 5.36916 18.745 5.37494 18.7635 5.38079L19.3679 3.47432C19.345 3.46705 19.3221 3.45987 19.2992 3.45277L18.7081 5.36345ZM19.0385 5.47332C19.0567 5.47981 19.0749 5.48637 19.0931 5.49299L19.7772 3.61361C19.7546 3.60539 19.732 3.59726 19.7094 3.58921L19.0385 5.47332ZM19.0931 5.49299C19.1136 5.50045 19.134 5.50795 19.1544 5.51551L19.8507 3.64064C19.8262 3.63156 19.8017 3.62255 19.7772 3.61361L19.0931 5.49299ZM19.4573 5.63381C19.4774 5.64203 19.4973 5.6503 19.5172 5.65863L20.2891 3.81357C20.2649 3.80346 20.2407 3.79342 20.2164 3.78345L19.4573 5.63381ZM19.5172 5.65863C19.4859 5.64551 19.4557 5.62873 19.4275 5.60862L20.5892 3.98058C20.4968 3.91464 20.3963 3.85843 20.2891 3.81357L19.5172 5.65863ZM19.2402 5.15193C19.2462 5.11782 19.2559 5.08469 19.269 5.05334L21.1141 5.8252C21.1589 5.71798 21.191 5.6074 21.2105 5.49555L19.2402 5.15193ZM19.269 5.05334C19.2821 5.02199 19.2989 4.99183 19.319 4.96364L20.947 6.12532C21.013 6.0329 21.0692 5.93242 21.1141 5.8252L19.269 5.05334ZM19.7757 4.77635C19.8098 4.7823 19.8429 4.792 19.8743 4.80511L19.1024 6.65017C19.2096 6.69502 19.3202 6.7271 19.4321 6.74661L19.7757 4.77635ZM19.8743 4.80511C19.8523 4.79593 19.8303 4.78681 19.8082 4.77775L19.0492 6.62813C19.067 6.63543 19.0848 6.64278 19.1024 6.65017L19.8743 4.80511ZM19.4763 4.64811C19.4541 4.63988 19.4319 4.63171 19.4096 4.62359L18.7255 6.50298C18.7438 6.50961 18.7619 6.51629 18.78 6.523L19.4763 4.64811ZM16.2769 4.52494C16.2786 4.491 16.2841 4.45693 16.2935 4.42359L18.219 4.96418C18.2497 4.85487 18.2685 4.74128 18.2743 4.6252L16.2769 4.52494ZM16.6596 4.0925C16.6937 4.08652 16.7281 4.08441 16.7621 4.08611L16.6618 6.0836C16.7779 6.08942 16.8928 6.0821 17.0046 6.06251L16.6596 4.0925ZM16.7621 4.08611C16.719 4.08395 16.676 4.0821 16.633 4.08056L16.5614 6.07928C16.5949 6.08048 16.6283 6.08192 16.6618 6.0836L16.7621 4.08611ZM15.9873 4.08063C15.9442 4.08219 15.9012 4.08404 15.8582 4.08621L15.9589 6.08367C15.9923 6.08199 16.0258 6.08055 16.0593 6.07934L15.9873 4.08063ZM15.8582 4.08621C15.8922 4.0845 15.9266 4.08661 15.9607 4.09258L15.6161 6.06265C15.7279 6.08222 15.8428 6.08952 15.9589 6.08367L15.8582 4.08621ZM16.3269 4.4236C16.3363 4.45694 16.3418 4.49101 16.3435 4.52495L14.3461 4.62557C14.3519 4.74165 14.3707 4.85524 14.4014 4.96455L16.3269 4.4236ZM16.3435 4.52494C16.3452 4.55888 16.3431 4.59334 16.3372 4.62745L14.3671 4.28276C14.3475 4.3946 14.3402 4.5095 14.3461 4.62558L16.3435 4.52494ZM16.0061 4.99359C15.9728 5.00296 15.9387 5.00852 15.9048 5.01023L15.8042 3.01277C15.6881 3.01861 15.5745 3.03743 15.4652 3.06814L16.0061 4.99359ZM15.9048 5.01023C15.9434 5.00829 15.982 5.00662 16.0206 5.00523L15.9486 3.00653C15.9004 3.00826 15.8523 3.01034 15.8042 3.01277L15.9048 5.01023ZM16.5999 5.00517C16.6385 5.00655 16.6771 5.00821 16.7157 5.01014L16.8159 3.01266C16.7678 3.01024 16.7196 3.00817 16.6715 3.00645L16.5999 5.00517ZM16.7157 5.01014C16.6817 5.00844 16.6477 5.00289 16.6143 4.99353L17.1549 3.06797C17.0456 3.03728 16.932 3.01849 16.8159 3.01266L16.7157 5.01014ZM16.2832 4.62744C16.2773 4.59333 16.2751 4.55888 16.2769 4.52494L18.2743 4.6252C18.2802 4.50912 18.2728 4.39422 18.2532 4.28239L16.2832 4.62744ZM20.5484 5.4689C20.4752 5.55918 20.4134 5.65628 20.3632 5.75813L22.1573 6.6419C22.142 6.67296 22.1234 6.70203 22.102 6.72842L20.5484 5.4689ZM20.5334 7.38667C20.6036 7.47594 20.6842 7.55814 20.7745 7.63133L22.034 6.07776C22.0604 6.09916 22.0846 6.12374 22.106 6.15097L20.5334 7.38667ZM20.7745 7.63134C20.8024 7.65401 20.8301 7.67687 20.8575 7.69991L22.1454 6.1698C22.1086 6.13883 22.0715 6.10815 22.034 6.07775L20.7745 7.63134ZM21.2508 8.06382C21.2758 8.08927 21.3006 8.11492 21.325 8.14076L22.7781 6.76655C22.7449 6.7314 22.7113 6.69653 22.6773 6.66194L21.2508 8.06382ZM21.325 8.14076C21.4049 8.2252 21.493 8.29933 21.5873 8.36247L22.6996 6.70031C22.7284 6.71957 22.7548 6.74186 22.7781 6.76655L21.325 8.14076ZM23.2241 8.40815C23.3218 8.35036 23.4139 8.28127 23.4984 8.20141L22.1242 6.7483C22.1488 6.72495 22.1764 6.70417 22.2062 6.68654L23.2241 8.40815ZM23.4984 8.20141C23.5828 8.12155 23.6569 8.03345 23.7201 7.93909L22.0579 6.82678C22.0772 6.79801 22.0995 6.77164 22.1242 6.7483L23.4984 8.20141ZM23.7658 6.30231C23.708 6.20458 23.6389 6.11248 23.559 6.02804L22.1059 7.40225C22.0826 7.37757 22.0618 7.35 22.0442 7.32019L23.7658 6.30231ZM23.559 6.02804C23.5211 5.98798 23.4828 5.94826 23.4441 5.90887L22.0176 7.31068C22.0474 7.34096 22.0768 7.37148 22.1059 7.40225L23.559 6.02804ZM22.838 5.34785C22.796 5.31251 22.7536 5.27752 22.7109 5.24286L21.4513 6.79644C21.4845 6.82335 21.5174 6.85051 21.5499 6.87789L22.838 5.34785ZM22.7109 5.24286C22.6206 5.16967 22.5235 5.10779 22.4216 5.05762L21.5379 6.85176C21.5068 6.83646 21.4777 6.81784 21.4513 6.79644L22.7109 5.24286ZM20.7931 5.22785C20.7038 5.298 20.6216 5.37862 20.5484 5.4689L22.102 6.72842C22.0806 6.75482 22.056 6.77905 22.0288 6.80044L20.7931 5.22785ZM15.2442 4.4671C15.2099 4.35607 15.1636 4.25065 15.1068 4.15232L13.3747 5.15223C13.3574 5.12224 13.3436 5.0906 13.3336 5.05814L15.2442 4.4671ZM13.6585 3.38837C13.5453 3.39704 13.4322 3.41835 13.3212 3.4527L13.9122 5.36337C13.8797 5.37341 13.8458 5.37988 13.8113 5.38253L13.6585 3.38837ZM13.3212 3.4527C13.2982 3.45981 13.2752 3.467 13.2523 3.47427L13.8569 5.3807C13.8753 5.37486 13.8937 5.36908 13.9122 5.36337L13.3212 3.4527ZM12.9103 3.58943C12.8877 3.59751 12.865 3.60567 12.8424 3.61391L13.5276 5.4929C13.5457 5.48628 13.5639 5.47972 13.5821 5.47323L12.9103 3.58943ZM12.8424 3.61391C12.7332 3.65372 12.6303 3.7052 12.5349 3.76677L13.6195 5.44712C13.5904 5.4659 13.5595 5.48126 13.5276 5.4929L12.8424 3.61391ZM11.8437 5.25117C11.858 5.36381 11.8849 5.47576 11.9247 5.58495L13.8037 4.89982C13.8153 4.93175 13.8235 4.96529 13.8278 4.99964L11.8437 5.25117ZM11.9247 5.58495C11.9645 5.69414 12.016 5.79713 12.0776 5.89252L13.7579 4.80789C13.7767 4.83698 13.7921 4.8679 13.8037 4.89982L11.9247 5.58495ZM13.562 6.58366C13.6746 6.56939 13.7866 6.54249 13.8958 6.50267L13.2106 4.62368C13.2425 4.61204 13.2761 4.6039 13.3104 4.59954L13.562 6.58366ZM13.8958 6.50267C13.9115 6.49692 13.9273 6.49122 13.9431 6.48558L13.2713 4.60179C13.2511 4.60902 13.2308 4.61631 13.2106 4.62368L13.8958 6.50267ZM14.1818 6.40522C14.1978 6.40015 14.2138 6.39513 14.2298 6.39017L13.6388 4.4795C13.6182 4.48586 13.5977 4.49229 13.5772 4.49879L14.1818 6.40522ZM14.2298 6.39017C14.3409 6.35582 14.4463 6.30952 14.5446 6.25276L13.5447 4.52066C13.5747 4.50335 13.6063 4.48954 13.6388 4.4795L14.2298 6.39017ZM15.3086 4.80448C15.2999 4.69128 15.2786 4.57813 15.2442 4.4671L13.3336 5.05814C13.3235 5.02568 13.317 4.99177 13.3144 4.95724L15.3086 4.80448ZM23.1231 7.65698C23.0174 7.7054 22.9189 7.76494 22.8287 7.83395L24.0442 9.42219C24.0167 9.44323 23.9872 9.46101 23.9563 9.47517L23.1231 7.65698ZM22.2585 9.36887C22.2817 9.48 22.3175 9.58944 22.3659 9.6951L24.1841 8.86191C24.1982 8.8928 24.209 8.92558 24.2161 8.95948L22.2585 9.36887ZM22.3659 9.6951C22.3811 9.72832 22.3961 9.76179 22.4109 9.79551L24.2432 8.99392C24.2239 8.94968 24.2042 8.90568 24.1841 8.86191L22.3659 9.6951ZM22.6114 10.3119C22.6235 10.347 22.6352 10.3823 22.6468 10.4179L24.5489 9.79972C24.5341 9.7543 24.519 9.70909 24.5036 9.66408L22.6114 10.3119ZM22.6468 10.4179C22.6827 10.5284 22.7305 10.6331 22.7887 10.7307L24.5064 9.70622C24.5241 9.73596 24.5384 9.7674 24.5489 9.79972L22.6468 10.4179ZM24.2477 11.4739C24.3607 11.4637 24.4736 11.4407 24.5841 11.4048L23.9659 9.50275C23.9983 9.49224 24.0321 9.48529 24.0666 9.48216L24.2477 11.4739ZM24.5841 11.4048C24.6946 11.3689 24.7994 11.3211 24.8969 11.263L23.8724 9.54524C23.9022 9.5275 23.9336 9.51325 23.9659 9.50275L24.5841 11.4048ZM25.6402 9.80396C25.6299 9.69089 25.607 9.57805 25.571 9.46752L23.669 10.0857C23.6585 10.0534 23.6515 10.0195 23.6484 9.98506L25.6402 9.80396ZM25.571 9.46753C25.5545 9.41649 25.5375 9.36564 25.5201 9.31497L23.628 9.96301C23.642 10.0037 23.6556 10.0446 23.669 10.0857L25.571 9.46753ZM25.2275 8.56225C25.2058 8.51266 25.1837 8.4633 25.1612 8.41415L23.343 9.24734C23.3607 9.286 23.3781 9.3249 23.3953 9.36402L25.2275 8.56225ZM25.1612 8.41415C25.1128 8.30849 25.0532 8.20995 24.9842 8.11979L23.396 9.33532C23.3749 9.30782 23.3572 9.27823 23.343 9.24734L25.1612 8.41415ZM23.4493 7.54956C23.3382 7.5728 23.2287 7.60857 23.1231 7.65698L23.9563 9.47517C23.9254 9.48933 23.8926 9.50012 23.8587 9.50721L23.4493 7.54956ZM23.8812 15.5173C23.9086 15.4972 23.9385 15.4799 23.9702 15.4661L24.7678 17.3002C24.8719 17.2549 24.9718 17.1978 25.0655 17.1289L23.8812 15.5173ZM24.4582 15.5407C24.4843 15.5634 24.5078 15.5887 24.5279 15.6161L22.9162 16.8004C22.985 16.8941 23.0633 16.9785 23.1492 17.0528L24.4582 15.5407ZM24.4894 15.567L24.2049 15.2267L22.6703 16.5092L22.9547 16.8495L24.4894 15.567ZM22.7828 13.525L22.4984 13.1846L20.9637 14.4672L21.2482 14.8075L22.7828 13.525ZM22.5369 13.2337C22.557 13.2611 22.5742 13.291 22.588 13.3228L20.7539 14.1203C20.7992 14.2245 20.8564 14.3244 20.9252 14.418L22.5369 13.2337ZM22.5135 13.8107C22.4908 13.8369 22.4654 13.8603 22.4381 13.8804L21.2537 12.2688C21.1601 12.3376 21.0757 12.4159 21.0013 12.5017L22.5135 13.8107ZM22.4381 13.8804C22.4107 13.9006 22.3808 13.9178 22.349 13.9316L21.5514 12.0975C21.4473 12.1428 21.3474 12.2 21.2537 12.2688L22.4381 13.8804ZM21.8611 13.857C21.8349 13.8343 21.8115 13.809 21.7914 13.7816L23.403 12.5973C23.3342 12.5036 23.2559 12.4192 23.1701 12.3449L21.8611 13.857ZM21.8448 13.8482L22.0155 14.0431L23.5201 12.7255L23.3495 12.5307L21.8448 13.8482ZM22.8686 15.0174L23.0393 15.2123L24.5439 13.8947L24.3733 13.6999L22.8686 15.0174ZM24.7915 14.5421C24.7913 14.5249 24.7912 14.4976 24.7913 14.4593L22.7913 14.4563C22.7912 14.4973 22.7913 14.5347 22.7917 14.5648L24.7915 14.5421ZM24.7944 13.9873C24.7947 13.9561 24.7949 13.9241 24.7952 13.8915L22.7953 13.8747C22.795 13.9073 22.7947 13.9393 22.7945 13.9706L24.7944 13.9873ZM24.7952 13.8915C24.7959 13.8113 24.7966 13.7272 24.7973 13.6412L22.7973 13.6251C22.7967 13.7107 22.7959 13.7944 22.7953 13.8747L24.7952 13.8915ZM24.7997 12.3689C24.7981 12.2588 24.7954 12.1379 24.7882 12.0503L22.795 12.216C22.7949 12.2142 22.7959 12.2277 22.7971 12.265C22.7982 12.299 22.7991 12.3429 22.7999 12.3966L24.7997 12.3689ZM24.7882 12.0504C24.791 12.0842 24.79 12.1187 24.7851 12.153L22.8049 11.8727C22.789 11.9851 22.7854 12.1002 22.795 12.216L24.7882 12.0504ZM24.4662 12.5297C24.4332 12.5402 24.3993 12.5469 24.3655 12.5497L24.1998 10.5566C24.084 10.5662 23.971 10.5887 23.8628 10.6229L24.4662 12.5297ZM24.3655 12.5497C24.3316 12.5525 24.2971 12.5515 24.2628 12.5467L24.5431 10.5664C24.4307 10.5505 24.3156 10.5469 24.1998 10.5566L24.3655 12.5497ZM23.8861 12.2277C23.8756 12.1947 23.869 12.1609 23.8661 12.127L25.8593 11.9613C25.8496 11.8455 25.8271 11.7326 25.7929 11.6243L23.8861 12.2277ZM23.8627 12.0455L23.8632 12.4248L25.8632 12.422L25.8627 12.0428L23.8627 12.0455ZM23.8658 14.3211L23.8663 14.7003L25.8663 14.6976L25.8658 14.3183L23.8658 14.3211ZM25.4608 15.5031L25.6708 15.3478L24.4819 13.7395L24.2719 13.8948L25.4608 15.5031ZM26.7211 14.5714L26.9311 14.4162L25.7422 12.8079L25.5322 12.9632L26.7211 14.5714ZM26.9288 14.4178C26.9014 14.438 26.8715 14.4552 26.8398 14.469L26.0422 12.6349C25.9381 12.6802 25.8382 12.7374 25.7445 12.8062L26.9288 14.4178ZM26.3518 14.3944C26.3256 14.3718 26.3022 14.3464 26.2821 14.319L27.8938 13.1347C27.8249 13.041 27.7467 12.9566 27.6608 12.8823L26.3518 14.3944ZM26.2821 14.319C26.262 14.2916 26.2448 14.2617 26.231 14.2299L28.0651 13.4324C28.0198 13.3283 27.9626 13.2284 27.8938 13.1347L26.2821 14.319ZM26.3055 13.742C26.3282 13.7158 26.3536 13.6924 26.3809 13.6723L27.5653 15.2839C27.6589 15.2151 27.7433 15.1369 27.8177 15.051L26.3055 13.742ZM26.3793 13.6735L26.0222 13.9371L27.2098 15.5463L27.5669 15.2827L26.3793 13.6735ZM24.2366 15.2549L23.8795 15.5185L25.0672 17.1277L25.4243 16.8641L24.2366 15.2549Z" fill="white" mask="url(#path-1-inside-1)"/>
<rect x="4.5" y="7.052" width="10.3548" height="20.448" rx="2.5" stroke="white"/>
<rect x="25.448" y="16.6453" width="11.3548" height="21.448" rx="3" transform="rotate(90 25.448 16.6453)" fill="#FDD019"/>
</svg>
