<svg width="31" height="31" viewBox="0 0 31 31" fill="none" xmlns="http://www.w3.org/2000/svg">
<path fill-rule="evenodd" clip-rule="evenodd" d="M24 7.50049C24 8.8812 22.8807 10.0005 21.5 10.0005C20.1193 10.0005 19 8.8812 19 7.50049C19 6.11978 20.1193 5.00049 21.5 5.00049C22.8807 5.00049 24 6.11978 24 7.50049ZM25 7.50049C25 9.43349 23.433 11.0005 21.5 11.0005C20.3006 11.0005 19.2422 10.3972 18.6115 9.4776L12.6952 13.0698C12.8911 13.5066 13 13.9908 13 14.5005C13 15.1494 12.8234 15.7571 12.5157 16.278L18.9017 20.1554C19.5423 19.4462 20.4691 19.0005 21.5 19.0005C23.433 19.0005 25 20.5675 25 22.5005C25 24.4335 23.433 26.0005 21.5 26.0005C19.567 26.0005 18 24.4335 18 22.5005C18 21.9581 18.1234 21.4446 18.3435 20.9864L11.8831 17.0639C11.2583 17.645 10.4206 18.0005 9.5 18.0005C7.567 18.0005 6 16.4335 6 14.5005C6 12.5675 7.567 11.0005 9.5 11.0005C10.5643 11.0005 11.5176 11.4755 12.1595 12.2251L18.1686 8.57665C18.0591 8.23761 18 7.87595 18 7.50049C18 5.56749 19.567 4.00049 21.5 4.00049C23.433 4.00049 25 5.56749 25 7.50049ZM12 14.5005C12 15.8812 10.8807 17.0005 9.5 17.0005C8.11929 17.0005 7 15.8812 7 14.5005C7 13.1198 8.11929 12.0005 9.5 12.0005C10.8807 12.0005 12 13.1198 12 14.5005ZM21.5 25.0005C22.8807 25.0005 24 23.8812 24 22.5005C24 21.1198 22.8807 20.0005 21.5 20.0005C20.1193 20.0005 19 21.1198 19 22.5005C19 23.8812 20.1193 25.0005 21.5 25.0005Z" fill="white"/>
</svg>
