<svg width="32" height="32" viewBox="0 0 32 32" fill="none" xmlns="http://www.w3.org/2000/svg">
<rect x="6" y="6" width="20" height="20" rx="1" stroke="white" stroke-linejoin="round"/>
<path d="M16 13.5C15.7411 13.5 15.5312 13.7099 15.5312 13.9688V15.5312H13.9688C13.7099 15.5312 13.5 15.7411 13.5 16C13.5 16.2589 13.7099 16.4687 13.9687 16.4687H15.5312V18.0312C15.5312 18.2901 15.7411 18.5 16 18.5C16.2589 18.5 16.4688 18.2901 16.4688 18.0312V16.4688H18.0312C18.2901 16.4688 18.5 16.2589 18.5 16C18.5 15.7411 18.2901 15.5312 18.0312 15.5312H16.4688V13.9688C16.4688 13.7099 16.2589 13.5 16 13.5Z" fill="#FDD019"/>
<path d="M16 13C15.465 13 15.0312 13.4337 15.0312 13.9688V15.0312H13.9688C13.4337 15.0312 13 15.465 13 16C13 16.535 13.4337 16.9687 13.9687 16.9687H15.0312V18.0312C15.0312 18.5663 15.465 19 16 19C16.535 19 16.9688 18.5663 16.9688 18.0312V16.9688H18.0312C18.5663 16.9688 19 16.535 19 16C19 15.465 18.5663 15.0312 18.0312 15.0312H16.9688V13.9688C16.9688 13.4337 16.535 13 16 13Z" stroke="black" stroke-opacity="0.1"/>
</svg>
